MeriendaOne-Regular.otf.ufo
<glyph name="exclam" format="1">
  <advance width="286"/>
  <unicode hex="0021"/>
  <outline>
    <contour>
      <point x="290" y="703" type="curve" smooth="yes"/>
      <point x="290" y="773"/>
      <point x="212" y="798"/>
      <point x="153" y="798" type="curve"/>
      <point x="156" y="782" smooth="yes"/>
      <point x="156" y="765" smooth="yes"/>
      <point x="156" y="748" type="curve" smooth="yes"/>
      <point x="156" y="607" smooth="yes"/>
      <point x="106" y="489" smooth="yes"/>
      <point x="106" y="366" type="curve" smooth="yes" name="hr01"/>
      <point x="106" y="288"/>
      <point x="131" y="242"/>
      <point x="227" y="218" type="curve"/>
      <point x="221" y="232" smooth="yes"/>
      <point x="219" y="256" smooth="yes"/>
      <point x="219" y="287" type="curve" smooth="yes"/>
      <point x="219" y="468" smooth="yes"/>
      <point x="290" y="622" smooth="yes"/>
    </contour>
    <contour>
      <point x="78" y="136" type="curve"/>
      <point x="70" y="107" smooth="yes"/>
      <point x="60" y="80" smooth="yes"/>
      <point x="60" y="51" type="curve" smooth="yes" name="hr03"/>
      <point x="60" y="1" smooth="yes"/>
      <point x="97" y="-11" smooth="yes"/>
      <point x="134" y="-11" type="curve" smooth="yes"/>
      <point x="158" y="-11"/>
      <point x="184" y="-7"/>
      <point x="205" y="-1" type="curve"/>
      <point x="213" y="28" smooth="yes"/>
      <point x="223" y="55" smooth="yes"/>
      <point x="223" y="84" type="curve" smooth="yes"/>
      <point x="223" y="134" smooth="yes"/>
      <point x="186" y="146" smooth="yes"/>
      <point x="149" y="146" type="curve" smooth="yes"/>
      <point x="125" y="146"/>
      <point x="99" y="142"/>
    </contour>
  </outline>
</glyph>
<glyph name="numbersign" format="1">
  <advance width="772"/>
  <unicode hex="0023"/>
  <outline>
    <contour>
      <point x="176" y="-41" type="curve" name="hr00"/>
      <point x="185" y="14"/>
      <point x="208" y="85"/>
      <point x="235" y="162" type="curve"/>
      <point x="289" y="164"/>
      <point x="338" y="168"/>
      <point x="386" y="170" type="curve"/>
      <point x="367" y="115" smooth="yes"/>
      <point x="354" y="71" smooth="yes"/>
      <point x="354" y="46" type="curve" smooth="yes"/>
      <point x="354" y="-31"/>
      <point x="447" y="-41"/>
      <point x="447" y="-41" type="curve"/>
      <point x="456" y="17"/>
      <point x="481" y="93"/>
      <point x="510" y="174" type="curve"/>
      <point x="577" y="173"/>
      <point x="640" y="170"/>
      <point x="711" y="163" type="curve"/>
      <point x="711" y="171" smooth="yes"/>
      <point x="712" y="178" smooth="yes"/>
      <point x="712" y="186" type="curve" smooth="yes"/>
      <point x="712" y="249" smooth="yes"/>
      <point x="694" y="295" smooth="yes"/>
      <point x="566" y="295" type="curve" smooth="yes"/>
      <point x="557" y="295" type="line"/>
      <point x="612" y="435" type="line"/>
      <point x="664" y="434"/>
      <point x="715" y="430"/>
      <point x="771" y="425" type="curve"/>
      <point x="771" y="433" smooth="yes"/>
      <point x="772" y="440" smooth="yes"/>
      <point x="772" y="448" type="curve" smooth="yes"/>
      <point x="772" y="506"/>
      <point x="757" y="549"/>
      <point x="655" y="556" type="curve"/>
      <point x="667" y="592" smooth="yes"/>
      <point x="674" y="621" smooth="yes"/>
      <point x="674" y="640" type="curve" smooth="yes"/>
      <point x="674" y="717"/>
      <point x="581" y="727"/>
      <point x="581" y="727" type="curve"/>
      <point x="573" y="679"/>
      <point x="555" y="619"/>
      <point x="532" y="555" type="curve"/>
      <point x="479" y="552"/>
      <point x="429" y="548"/>
      <point x="381" y="546" type="curve"/>
      <point x="394" y="587" smooth="yes"/>
      <point x="403" y="619" smooth="yes"/>
      <point x="403" y="640" type="curve" smooth="yes"/>
      <point x="403" y="717"/>
      <point x="310" y="727"/>
      <point x="310" y="727" type="curve"/>
      <point x="301" y="676"/>
      <point x="282" y="612"/>
      <point x="257" y="543" type="curve"/>
      <point x="192" y="543"/>
      <point x="130" y="547"/>
      <point x="61" y="554" type="curve"/>
      <point x="61" y="546" smooth="yes"/>
      <point x="60" y="539" smooth="yes"/>
      <point x="60" y="531" type="curve" smooth="yes"/>
      <point x="60" y="468" smooth="yes"/>
      <point x="78" y="422" smooth="yes"/>
      <point x="205" y="422" type="curve" smooth="yes"/>
      <point x="212" y="422" type="line"/>
      <point x="194" y="374"/>
      <point x="174" y="326"/>
      <point x="157" y="281" type="curve"/>
      <point x="106" y="283"/>
      <point x="56" y="286"/>
      <point x="1" y="292" type="curve"/>
      <point x="1" y="284" smooth="yes"/>
      <point x="0" y="277" smooth="yes"/>
      <point x="0" y="269" type="curve" smooth="yes"/>
      <point x="0" y="212"/>
      <point x="15" y="169"/>
      <point x="112" y="161" type="curve"/>
      <point x="94" y="110" smooth="yes"/>
      <point x="83" y="69" smooth="yes"/>
      <point x="83" y="46" type="curve" smooth="yes"/>
      <point x="83" y="-31"/>
      <point x="176" y="-41"/>
    </contour>
    <contour>
      <point x="488" y="435" type="curve"/>
      <point x="431" y="290" type="line"/>
      <point x="378" y="287"/>
      <point x="329" y="284"/>
      <point x="281" y="282" type="curve"/>
      <point x="300" y="331"/>
      <point x="320" y="380"/>
      <point x="337" y="426" type="curve"/>
      <point x="390" y="429"/>
      <point x="440" y="433"/>
    </contour>
  </outline>
</glyph>
<glyph name="dollar" format="1">
  <advance width="620"/>
  <unicode hex="0024"/>
  <outline>
    <contour>
      <point x="389" y="479" type="curve"/>
      <point x="403" y="474" smooth="yes"/>
      <point x="418" y="472" smooth="yes"/>
      <point x="430" y="472" type="curve" smooth="yes"/>
      <point x="506" y="472" smooth="yes"/>
      <point x="535" y="529" smooth="yes"/>
      <point x="535" y="580" type="curve" smooth="yes"/>
      <point x="535" y="634"/>
      <point x="500" y="695"/>
      <point x="411" y="713" type="curve"/>
      <point x="418" y="746" smooth="yes"/>
      <point x="422" y="773" smooth="yes"/>
      <point x="422" y="791" type="curve" smooth="yes"/>
      <point x="422" y="849"/>
      <point x="380" y="875"/>
      <point x="348" y="875" type="curve"/>
      <point x="344" y="833"/>
      <point x="334" y="778"/>
      <point x="320" y="718" type="curve"/>
      <point x="185" y="708" smooth="yes"/>
      <point x="126" y="635" smooth="yes"/>
      <point x="126" y="534" type="curve" smooth="yes"/>
      <point x="126" y="325" smooth="yes"/>
      <point x="415" y="264" smooth="yes"/>
      <point x="415" y="143" type="curve" smooth="yes"/>
      <point x="415" y="78" smooth="yes"/>
      <point x="370" y="39" smooth="yes"/>
      <point x="298" y="39" type="curve" smooth="yes"/>
      <point x="220" y="39" smooth="yes"/>
      <point x="184" y="103" smooth="yes"/>
      <point x="184" y="166" type="curve" smooth="yes" name="hr01"/>
      <point x="184" y="195"/>
      <point x="194" y="225"/>
      <point x="211" y="251" type="curve"/>
      <point x="201" y="254" smooth="yes"/>
      <point x="190" y="255" smooth="yes"/>
      <point x="181" y="255" type="curve" smooth="yes"/>
      <point x="117" y="255" smooth="yes"/>
      <point x="71" y="207" smooth="yes"/>
      <point x="71" y="134" type="curve" smooth="yes"/>
      <point x="71" y="67"/>
      <point x="117" y="2"/>
      <point x="218" y="-18" type="curve"/>
      <point x="209" y="-58" smooth="yes"/>
      <point x="204" y="-91" smooth="yes"/>
      <point x="204" y="-113" type="curve" smooth="yes"/>
      <point x="204" y="-190"/>
      <point x="296" y="-190"/>
      <point x="305" y="-190" type="curve"/>
      <point x="305" y="-141"/>
      <point x="312" y="-84"/>
      <point x="323" y="-23" type="curve"/>
      <point x="456" y="-11" smooth="yes"/>
      <point x="537" y="74" smooth="yes"/>
      <point x="537" y="172" type="curve" smooth="yes"/>
      <point x="537" y="353" smooth="yes"/>
      <point x="239" y="405" smooth="yes"/>
      <point x="239" y="555" type="curve" smooth="yes" name="hr02"/>
      <point x="239" y="622" smooth="yes"/>
      <point x="294" y="655" smooth="yes"/>
      <point x="346" y="655" type="curve" smooth="yes"/>
      <point x="393" y="655" smooth="yes"/>
      <point x="437" y="629" smooth="yes"/>
      <point x="437" y="577" type="curve" smooth="yes"/>
      <point x="437" y="540"/>
      <point x="420" y="500"/>
    </contour>
  </outline>
</glyph>
<glyph name="period" format="1">
  <advance width="208"/>
  <unicode hex="002E"/>
  <outline>
    <contour>
      <point x="175" y="-1" type="curve" name="hr00"/>
      <point x="183" y="28" smooth="yes"/>
      <point x="193" y="55" smooth="yes"/>
      <point x="193" y="84" type="curve" smooth="yes"/>
      <point x="193" y="134" smooth="yes"/>
      <point x="156" y="146" smooth="yes"/>
      <point x="119" y="146" type="curve" smooth="yes"/>
      <point x="95" y="146"/>
      <point x="69" y="142"/>
      <point x="48" y="136" type="curve"/>
      <point x="40" y="107" smooth="yes"/>
      <point x="30" y="80" smooth="yes"/>
      <point x="30" y="51" type="curve" smooth="yes"/>
      <point x="30" y="1" smooth="yes"/>
      <point x="67" y="-11" smooth="yes"/>
      <point x="104" y="-11" type="curve" smooth="yes"/>
      <point x="128" y="-11"/>
      <point x="154" y="-7"/>
    </contour>
  </outline>
</glyph>
<glyph name="semicolon" format="1">
  <advance width="287"/>
  <unicode hex="003B"/>
  <outline>
    <contour>
      <point x="238" y="407" type="curve"/>
      <point x="246" y="436" smooth="yes"/>
      <point x="256" y="463" smooth="yes"/>
      <point x="256" y="492" type="curve" smooth="yes"/>
      <point x="256" y="542" smooth="yes"/>
      <point x="219" y="554" smooth="yes"/>
      <point x="182" y="554" type="curve" smooth="yes"/>
      <point x="158" y="554"/>
      <point x="132" y="550"/>
      <point x="111" y="544" type="curve"/>
      <point x="103" y="515" smooth="yes"/>
      <point x="93" y="488" smooth="yes"/>
      <point x="93" y="459" type="curve" smooth="yes"/>
      <point x="93" y="409" smooth="yes"/>
      <point x="130" y="397" smooth="yes"/>
      <point x="167" y="397" type="curve" smooth="yes"/>
      <point x="191" y="397"/>
      <point x="217" y="401"/>
    </contour>
    <contour>
      <point x="75" y="135" type="curve"/>
      <point x="84" y="110" smooth="yes"/>
      <point x="90" y="85" smooth="yes"/>
      <point x="90" y="60" type="curve" smooth="yes"/>
      <point x="90" y="2"/>
      <point x="63" y="-56"/>
      <point x="11" y="-102" type="curve"/>
      <point x="40" y="-147" type="line"/>
      <point x="162" y="-84" smooth="yes"/>
      <point x="224" y="-1" smooth="yes"/>
      <point x="224" y="84" type="curve" smooth="yes" name="hr01"/>
      <point x="224" y="134" smooth="yes"/>
      <point x="187" y="146" smooth="yes"/>
      <point x="150" y="146" type="curve" smooth="yes"/>
      <point x="126" y="146"/>
      <point x="96" y="141"/>
    </contour>
  </outline>
</glyph>
<glyph name="less" format="1">
  <advance width="620"/>
  <unicode hex="003C"/>
  <outline>
    <contour>
      <point x="90" y="313" type="curve" name="hr00"/>
      <point x="268" y="226" smooth="yes"/>
      <point x="385" y="96" smooth="yes"/>
      <point x="478" y="96" type="curve" smooth="yes"/>
      <point x="513" y="96"/>
      <point x="535" y="128"/>
      <point x="550" y="195" type="curve"/>
      <point x="438" y="236"/>
      <point x="330" y="318"/>
      <point x="230" y="368" type="curve"/>
      <point x="330" y="418"/>
      <point x="441" y="503"/>
      <point x="550" y="541" type="curve"/>
      <point x="535" y="608" smooth="yes"/>
      <point x="513" y="640" smooth="yes"/>
      <point x="478" y="640" type="curve" smooth="yes"/>
      <point x="385" y="640"/>
      <point x="268" y="510"/>
      <point x="90" y="423" type="curve"/>
      <point x="77" y="405" smooth="yes"/>
      <point x="70" y="384" smooth="yes"/>
      <point x="70" y="365" type="curve" smooth="yes"/>
      <point x="70" y="346"/>
      <point x="77" y="327"/>
    </contour>
  </outline>
</glyph>
<glyph name="A" format="1">
  <advance width="645"/>
  <unicode hex="0041"/>
  <outline>
    <contour>
      <point x="458" y="64" type="curve" smooth="yes"/>
      <point x="475" y="12" smooth="yes"/>
      <point x="490" y="-16" smooth="yes"/>
      <point x="540" y="-16" type="curve" smooth="yes"/>
      <point x="564" y="-16"/>
      <point x="602" y="-4"/>
      <point x="635" y="12" type="curve"/>
      <point x="566" y="108" smooth="yes"/>
      <point x="540" y="300" smooth="yes"/>
      <point x="495" y="493" type="curve" smooth="yes"/>
      <point x="450" y="688" smooth="yes"/>
      <point x="446" y="805" smooth="yes"/>
      <point x="315" y="805" type="curve" smooth="yes"/>
      <point x="296" y="805"/>
      <point x="272" y="801"/>
      <point x="248" y="793" type="curve"/>
      <point x="258" y="781"/>
      <point x="273" y="767"/>
      <point x="287" y="742" type="curve"/>
      <point x="269" y="693" type="line" smooth="yes"/>
      <point x="206" y="520" smooth="yes"/>
      <point x="-20" y="88" smooth="yes"/>
      <point x="-20" y="44" type="curve" smooth="yes"/>
      <point x="-20" y="20"/>
      <point x="0" y="-6"/>
      <point x="82" y="-33" type="curve" name="hr01"/>
      <point x="102" y="46"/>
      <point x="132" y="134"/>
      <point x="166" y="222" type="curve"/>
      <point x="337" y="228" type="line" smooth="yes"/>
      <point x="367" y="229"/>
      <point x="395" y="237"/>
      <point x="414" y="256" type="curve"/>
      <point x="432" y="168" smooth="yes"/>
      <point x="448" y="95" smooth="yes"/>
    </contour>
    <contour>
      <point x="330" y="620" type="curve"/>
      <point x="355" y="527"/>
      <point x="381" y="411"/>
      <point x="403" y="306" type="curve"/>
      <point x="199" y="306" type="line"/>
      <point x="246" y="420"/>
      <point x="294" y="531"/>
    </contour>
  </outline>
</glyph>
<glyph name="B" format="1">
  <advance width="691"/>
  <unicode hex="0042"/>
  <outline>
    <contour>
      <point x="75" y="53" type="curve" name="hr00"/>
      <point x="144" y="3" smooth="yes"/>
      <point x="239" y="-24" smooth="yes"/>
      <point x="332" y="-24" type="curve" smooth="yes"/>
      <point x="485" y="-24" smooth="yes"/>
      <point x="631" y="54" smooth="yes"/>
      <point x="631" y="221" type="curve" smooth="yes"/>
      <point x="631" y="333"/>
      <point x="524" y="401"/>
      <point x="444" y="418" type="curve"/>
      <point x="561" y="457" smooth="yes"/>
      <point x="631" y="543" smooth="yes"/>
      <point x="631" y="638" type="curve" smooth="yes"/>
      <point x="631" y="741" smooth="yes"/>
      <point x="538" y="802" smooth="yes"/>
      <point x="438" y="802" type="curve" smooth="yes"/>
      <point x="391" y="802"/>
      <point x="324" y="792"/>
      <point x="261" y="759" type="curve"/>
      <point x="243" y="799"/>
      <point x="203" y="827"/>
      <point x="127" y="847" type="curve"/>
      <point x="136" y="826" smooth="yes"/>
      <point x="141" y="786" smooth="yes"/>
      <point x="141" y="735" type="curve" smooth="yes"/>
      <point x="141" y="437"/>
      <point x="90" y="179"/>
    </contour>
    <contour>
      <point x="375" y="720" type="curve" smooth="yes"/>
      <point x="458" y="720" smooth="yes"/>
      <point x="490" y="667" smooth="yes"/>
      <point x="490" y="612" type="curve" smooth="yes"/>
      <point x="490" y="537"/>
      <point x="426" y="447"/>
      <point x="295" y="428" type="curve"/>
      <point x="298" y="392" type="line"/>
      <point x="419" y="387" smooth="yes"/>
      <point x="480" y="307" smooth="yes"/>
      <point x="480" y="230" type="curve" smooth="yes"/>
      <point x="480" y="122" smooth="yes"/>
      <point x="409" y="57" smooth="yes"/>
      <point x="312" y="57" type="curve" smooth="yes"/>
      <point x="278" y="57"/>
      <point x="244" y="67"/>
      <point x="220" y="77" type="curve"/>
      <point x="220" y="213"/>
      <point x="273" y="572"/>
      <point x="273" y="697" type="curve"/>
      <point x="293" y="706" smooth="yes"/>
      <point x="338" y="720" smooth="yes"/>
    </contour>
  </outline>
</glyph>
<glyph name="C" format="1">
  <advance width="687"/>
  <unicode hex="0043"/>
  <outline>
    <contour>
      <point x="584" y="205" type="curve" name="hr00"/>
      <point x="525" y="116" smooth="yes"/>
      <point x="446" y="78" smooth="yes"/>
      <point x="381" y="78" type="curve" smooth="yes"/>
      <point x="283" y="78" smooth="yes"/>
      <point x="203" y="159" smooth="yes"/>
      <point x="203" y="338" type="curve" smooth="yes"/>
      <point x="203" y="522" smooth="yes"/>
      <point x="288" y="733" smooth="yes"/>
      <point x="427" y="733" type="curve" smooth="yes"/>
      <point x="488" y="733" smooth="yes"/>
      <point x="510" y="688" smooth="yes"/>
      <point x="510" y="636" type="curve" smooth="yes"/>
      <point x="510" y="576"/>
      <point x="483" y="504"/>
      <point x="457" y="471" type="curve"/>
      <point x="475" y="466" smooth="yes"/>
      <point x="492" y="463" smooth="yes"/>
      <point x="508" y="463" type="curve" smooth="yes"/>
      <point x="594" y="463" smooth="yes"/>
      <point x="652" y="531" smooth="yes"/>
      <point x="652" y="625" type="curve" smooth="yes"/>
      <point x="652" y="712" smooth="yes"/>
      <point x="593" y="806" smooth="yes"/>
      <point x="442" y="806" type="curve" smooth="yes"/>
      <point x="179" y="806" smooth="yes"/>
      <point x="45" y="584" smooth="yes"/>
      <point x="45" y="337" type="curve" smooth="yes"/>
      <point x="45" y="94" smooth="yes"/>
      <point x="178" y="-15" smooth="yes"/>
      <point x="323" y="-15" type="curve" smooth="yes"/>
      <point x="416" y="-15"/>
      <point x="534" y="20"/>
      <point x="621" y="168" type="curve"/>
      <point x="621" y="186"/>
      <point x="606" y="200"/>
    </contour>
  </outline>
</glyph>
<glyph name="D" format="1">
  <advance width="760"/>
  <unicode hex="0044"/>
  <outline>
    <contour>
      <point x="261" y="759" type="curve" name="hr00"/>
      <point x="243" y="799"/>
      <point x="203" y="827"/>
      <point x="127" y="847" type="curve"/>
      <point x="136" y="826" smooth="yes"/>
      <point x="141" y="786" smooth="yes"/>
      <point x="141" y="735" type="curve" smooth="yes"/>
      <point x="141" y="437"/>
      <point x="90" y="179"/>
      <point x="75" y="53" type="curve"/>
      <point x="75" y="53" smooth="yes"/>
      <point x="171" y="-15" smooth="yes"/>
      <point x="325" y="-15" type="curve" smooth="yes"/>
      <point x="601" y="-15" smooth="yes"/>
      <point x="724" y="207" smooth="yes"/>
      <point x="724" y="419" type="curve" smooth="yes"/>
      <point x="724" y="631" smooth="yes"/>
      <point x="618" y="802" smooth="yes"/>
      <point x="428" y="802" type="curve" smooth="yes"/>
      <point x="366" y="802"/>
      <point x="319" y="787"/>
    </contour>
    <contour>
      <point x="221" y="75" type="curve"/>
      <point x="221" y="211"/>
      <point x="274" y="572"/>
      <point x="274" y="697" type="curve"/>
      <point x="308" y="711" smooth="yes"/>
      <point x="349" y="715" smooth="yes"/>
      <point x="376" y="715" type="curve" smooth="yes"/>
      <point x="502" y="715" smooth="yes"/>
      <point x="579" y="592" smooth="yes"/>
      <point x="579" y="425" type="curve" smooth="yes"/>
      <point x="579" y="250" smooth="yes"/>
      <point x="490" y="60" smooth="yes"/>
      <point x="308" y="60" type="curve" smooth="yes"/>
      <point x="278" y="60"/>
      <point x="247" y="65"/>
    </contour>
  </outline>
</glyph>
<glyph name="I" format="1">
  <advance width="344"/>
  <unicode hex="0049"/>
  <outline>
    <contour>
      <point x="274" y="684" type="curve" smooth="yes"/>
      <point x="274" y="753"/>
      <point x="268" y="796"/>
      <point x="129" y="802" type="curve"/>
      <point x="131" y="776" smooth="yes"/>
      <point x="133" y="748" smooth="yes"/>
      <point x="133" y="720" type="curve" smooth="yes"/>
      <point x="133" y="585" smooth="yes"/>
      <point x="113" y="440" smooth="yes"/>
      <point x="96" y="322" type="curve" smooth="yes"/>
      <point x="85" y="241" smooth="yes"/>
      <point x="75" y="173" smooth="yes"/>
      <point x="75" y="129" type="curve" smooth="yes" name="hr01"/>
      <point x="75" y="46"/>
      <point x="104" y="-1"/>
      <point x="222" y="-31" type="curve"/>
      <point x="213" y="-10" smooth="yes"/>
      <point x="208" y="29" smooth="yes"/>
      <point x="208" y="78" type="curve" smooth="yes"/>
      <point x="208" y="180" smooth="yes"/>
      <point x="230" y="334" smooth="yes"/>
      <point x="249" y="464" type="curve" smooth="yes"/>
      <point x="263" y="560" smooth="yes"/>
      <point x="274" y="643" smooth="yes"/>
    </contour>
  </outline>
</glyph>
<glyph name="K" format="1">
  <advance width="671"/>
  <unicode hex="004B"/>
  <outline>
    <contour>
      <point x="274" y="684" type="curve" smooth="yes"/>
      <point x="274" y="753"/>
      <point x="268" y="796"/>
      <point x="129" y="802" type="curve"/>
      <point x="131" y="776" smooth="yes"/>
      <point x="133" y="748" smooth="yes"/>
      <point x="133" y="720" type="curve" smooth="yes"/>
      <point x="133" y="585" smooth="yes"/>
      <point x="113" y="440" smooth="yes"/>
      <point x="96" y="322" type="curve" smooth="yes"/>
      <point x="85" y="241" smooth="yes"/>
      <point x="75" y="173" smooth="yes"/>
      <point x="75" y="129" type="curve" smooth="yes" name="hr01"/>
      <point x="75" y="46"/>
      <point x="104" y="-1"/>
      <point x="222" y="-31" type="curve"/>
      <point x="213" y="-10" smooth="yes"/>
      <point x="208" y="29" smooth="yes"/>
      <point x="208" y="78" type="curve" smooth="yes"/>
      <point x="208" y="140"/>
      <point x="216" y="221"/>
      <point x="226" y="304" type="curve"/>
      <point x="247" y="318"/>
      <point x="267" y="333"/>
      <point x="287" y="347" type="curve"/>
      <point x="357" y="161" smooth="yes"/>
      <point x="441" y="-33" smooth="yes"/>
      <point x="587" y="-33" type="curve" smooth="yes"/>
      <point x="607" y="-33"/>
      <point x="630" y="-30"/>
      <point x="656" y="-23" type="curve"/>
      <point x="554" y="84"/>
      <point x="484" y="180"/>
      <point x="405" y="430" type="curve"/>
      <point x="536" y="526" smooth="yes"/>
      <point x="632" y="606" smooth="yes"/>
      <point x="632" y="682" type="curve" smooth="yes"/>
      <point x="632" y="714"/>
      <point x="624" y="755"/>
      <point x="599" y="799" type="curve"/>
      <point x="553" y="712"/>
      <point x="433" y="565"/>
      <point x="240" y="406" type="curve"/>
      <point x="249" y="464" type="line" smooth="yes"/>
      <point x="263" y="560" smooth="yes"/>
      <point x="274" y="643" smooth="yes"/>
    </contour>
  </outline>
</glyph>
<glyph name="L" format="1">
  <advance width="547"/>
  <unicode hex="004C"/>
  <outline>
    <contour>
      <point x="28" y="-12" type="curve"/>
      <point x="86" y="1" smooth="yes"/>
      <point x="143" y="5" smooth="yes"/>
      <point x="195" y="5" type="curve" smooth="yes"/>
      <point x="300" y="5" smooth="yes"/>
      <point x="387" y="-12" smooth="yes"/>
      <point x="433" y="-12" type="curve" smooth="yes"/>
      <point x="504" y="-12"/>
      <point x="556" y="44"/>
      <point x="568" y="144" type="curve"/>
      <point x="502" y="122"/>
      <point x="360" y="106"/>
      <point x="217" y="106" type="curve"/>
      <point x="221" y="207" smooth="yes"/>
      <point x="240" y="345" smooth="yes"/>
      <point x="258" y="464" type="curve" smooth="yes"/>
      <point x="272" y="560" smooth="yes"/>
      <point x="283" y="643" smooth="yes"/>
      <point x="283" y="684" type="curve" smooth="yes" name="hr01"/>
      <point x="283" y="753"/>
      <point x="277" y="796"/>
      <point x="138" y="802" type="curve"/>
      <point x="140" y="776" smooth="yes"/>
      <point x="142" y="748" smooth="yes"/>
      <point x="142" y="720" type="curve" smooth="yes"/>
      <point x="142" y="585" smooth="yes"/>
      <point x="122" y="440" smooth="yes"/>
      <point x="105" y="322" type="curve" smooth="yes"/>
      <point x="94" y="241" smooth="yes"/>
      <point x="84" y="173" smooth="yes"/>
      <point x="84" y="129" type="curve" smooth="yes" name="hr02"/>
      <point x="84" y="109"/>
      <point x="85" y="91"/>
      <point x="89" y="76" type="curve"/>
      <point x="46" y="48"/>
      <point x="33" y="7"/>
    </contour>
  </outline>
</glyph>
<glyph name="O" format="1">
  <advance width="802"/>
  <unicode hex="004F"/>
  <outline>
    <contour>
      <point x="459" y="716" type="curve" smooth="yes" name="hr00"/>
      <point x="539" y="716" smooth="yes"/>
      <point x="601" y="647" smooth="yes"/>
      <point x="601" y="450" type="curve" smooth="yes"/>
      <point x="601" y="255" smooth="yes"/>
      <point x="518" y="45" smooth="yes"/>
      <point x="372" y="45" type="curve" smooth="yes"/>
      <point x="254" y="45" smooth="yes"/>
      <point x="205" y="175" smooth="yes"/>
      <point x="205" y="330" type="curve" smooth="yes"/>
      <point x="205" y="512" smooth="yes"/>
      <point x="318" y="716" smooth="yes"/>
    </contour>
    <contour>
      <point x="357" y="-25" type="curve" smooth="yes"/>
      <point x="641" y="-25" smooth="yes"/>
      <point x="752" y="244" smooth="yes"/>
      <point x="752" y="479" type="curve" smooth="yes"/>
      <point x="752" y="700" smooth="yes"/>
      <point x="640" y="804" smooth="yes"/>
      <point x="513" y="804" type="curve" smooth="yes"/>
      <point x="396" y="804"/>
      <point x="268" y="716"/>
      <point x="210" y="553" type="curve"/>
      <point x="231" y="680"/>
      <point x="300" y="761"/>
      <point x="366" y="809" type="curve"/>
      <point x="365" y="818"/>
      <point x="353" y="828"/>
      <point x="342" y="830" type="curve"/>
      <point x="163" y="786" smooth="yes"/>
      <point x="50" y="600" smooth="yes"/>
      <point x="50" y="379" type="curve" smooth="yes"/>
      <point x="50" y="191" smooth="yes"/>
      <point x="141" y="-25" smooth="yes"/>
    </contour>
  </outline>
</glyph>
<glyph name="Q" format="1">
  <advance width="787"/>
  <unicode hex="0051"/>
  <outline>
    <contour>
      <point x="651" y="-301" type="curve" smooth="yes" name="hr00"/>
      <point x="705" y="-301"/>
      <point x="756" y="-261"/>
      <point x="789" y="-184" type="curve"/>
      <point x="711" y="-184"/>
      <point x="479" y="-114"/>
      <point x="313" y="-62" type="curve"/>
      <point x="588" y="5" smooth="yes"/>
      <point x="752" y="202" smooth="yes"/>
      <point x="752" y="475" type="curve" smooth="yes"/>
      <point x="752" y="669" smooth="yes"/>
      <point x="640" y="800" smooth="yes"/>
      <point x="475" y="800" type="curve" smooth="yes"/>
      <point x="179" y="800" smooth="yes"/>
      <point x="67" y="542" smooth="yes"/>
      <point x="67" y="358" type="curve" smooth="yes"/>
      <point x="67" y="171" smooth="yes"/>
      <point x="171" y="85" smooth="yes"/>
      <point x="289" y="85" type="curve" smooth="yes"/>
      <point x="388" y="85" smooth="yes"/>
      <point x="497" y="153" smooth="yes"/>
      <point x="497" y="291" type="curve" smooth="yes"/>
      <point x="497" y="385" smooth="yes"/>
      <point x="425" y="416" smooth="yes"/>
      <point x="377" y="416" type="curve" smooth="yes"/>
      <point x="340" y="416"/>
      <point x="309" y="404"/>
      <point x="309" y="404" type="curve"/>
      <point x="309" y="404" smooth="yes"/>
      <point x="359" y="368" smooth="yes"/>
      <point x="359" y="289" type="curve" smooth="yes"/>
      <point x="359" y="210" smooth="yes"/>
      <point x="328" y="175" smooth="yes"/>
      <point x="281" y="175" type="curve" smooth="yes"/>
      <point x="230" y="175" smooth="yes"/>
      <point x="202" y="235" smooth="yes"/>
      <point x="202" y="353" type="curve" smooth="yes"/>
      <point x="202" y="551" smooth="yes"/>
      <point x="311" y="717" smooth="yes"/>
      <point x="442" y="717" type="curve" smooth="yes"/>
      <point x="543" y="717" smooth="yes"/>
      <point x="604" y="612" smooth="yes"/>
      <point x="604" y="438" type="curve" smooth="yes"/>
      <point x="604" y="251"/>
      <point x="530" y="6"/>
      <point x="187" y="-35" type="curve"/>
      <point x="104" y="-35"/>
      <point x="66" y="-86"/>
      <point x="53" y="-108" type="curve"/>
      <point x="117" y="-110" smooth="yes"/>
      <point x="187" y="-127" smooth="yes"/>
      <point x="247" y="-145" type="curve" smooth="yes"/>
      <point x="382" y="-186" smooth="yes"/>
      <point x="580" y="-301" smooth="yes"/>
    </contour>
  </outline>
</glyph>
<glyph name="grave" format="1">
  <advance width="372"/>
  <unicode hex="0060"/>
  <outline>
    <contour>
      <point x="352" y="652" type="curve" name="hr00"/>
      <point x="319" y="727"/>
      <point x="230" y="835"/>
      <point x="151" y="867" type="curve"/>
      <point x="132" y="855"/>
      <point x="91" y="827"/>
      <point x="88" y="760" type="curve"/>
      <point x="179" y="736"/>
      <point x="266" y="668"/>
      <point x="310" y="619" type="curve"/>
      <point x="331" y="623"/>
      <point x="349" y="637"/>
    </contour>
  </outline>
</glyph>
<glyph name="a" format="1">
  <advance width="635"/>
  <unicode hex="0061"/>
  <outline>
    <contour>
      <point x="186" y="189" type="curve" smooth="yes"/>
      <point x="186" y="309"/>
      <point x="262" y="486"/>
      <point x="407" y="537" type="curve"/>
      <point x="387" y="549" smooth="yes"/>
      <point x="358" y="557" smooth="yes"/>
      <point x="326" y="557" type="curve" smooth="yes"/>
      <point x="147" y="557" smooth="yes"/>
      <point x="38" y="356" smooth="yes"/>
      <point x="38" y="181" type="curve" smooth="yes"/>
      <point x="38" y="50" smooth="yes"/>
      <point x="103" y="-12" smooth="yes"/>
      <point x="181" y="-12" type="curve" smooth="yes"/>
      <point x="270" y="-12"/>
      <point x="379" y="67"/>
      <point x="417" y="199" type="curve"/>
      <point x="415" y="179" smooth="yes"/>
      <point x="413" y="162" smooth="yes"/>
      <point x="413" y="145" type="curve" smooth="yes"/>
      <point x="413" y="38"/>
      <point x="458" y="-16"/>
      <point x="558" y="-33" type="curve"/>
      <point x="536" y="12" smooth="yes"/>
      <point x="527" y="46" smooth="yes"/>
      <point x="527" y="116" type="curve" smooth="yes"/>
      <point x="527" y="251" smooth="yes"/>
      <point x="575" y="426" smooth="yes"/>
      <point x="575" y="483" type="curve" smooth="yes" name="hr01"/>
      <point x="575" y="553" smooth="yes"/>
      <point x="535" y="570" smooth="yes"/>
      <point x="472" y="570" type="curve" smooth="yes"/>
      <point x="460" y="570"/>
      <point x="445" y="569"/>
      <point x="430" y="568" type="curve"/>
      <point x="435" y="528" smooth="yes"/>
      <point x="436" y="490" smooth="yes"/>
      <point x="436" y="454" type="curve" smooth="yes"/>
      <point x="436" y="274" smooth="yes"/>
      <point x="349" y="83" smooth="yes"/>
      <point x="253" y="83" type="curve" smooth="yes"/>
      <point x="209" y="83" smooth="yes"/>
      <point x="186" y="128" smooth="yes"/>
    </contour>
  </outline>
</glyph>
<glyph name="e" format="1">
  <advance width="547"/>
  <unicode hex="0065"/>
  <outline>
    <contour>
      <point x="247" y="-15" type="curve" smooth="yes" name="hr00"/>
      <point x="343" y="-15"/>
      <point x="425" y="33"/>
      <point x="480" y="120" type="curve"/>
      <point x="480" y="138"/>
      <point x="467" y="151"/>
      <point x="444" y="157" type="curve"/>
      <point x="401" y="93" smooth="yes"/>
      <point x="348" y="59" smooth="yes"/>
      <point x="291" y="59" type="curve" smooth="yes"/>
      <point x="230" y="59" smooth="yes"/>
      <point x="196" y="118" smooth="yes"/>
      <point x="196" y="226" type="curve" smooth="yes"/>
      <point x="196" y="241"/>
      <point x="196" y="250"/>
      <point x="197" y="257" type="curve"/>
      <point x="226" y="250" smooth="yes"/>
      <point x="259" y="246" smooth="yes"/>
      <point x="291" y="246" type="curve" smooth="yes"/>
      <point x="426" y="246" smooth="yes"/>
      <point x="517" y="321" smooth="yes"/>
      <point x="517" y="432" type="curve" smooth="yes"/>
      <point x="517" y="522" smooth="yes"/>
      <point x="457" y="577" smooth="yes"/>
      <point x="357" y="577" type="curve" smooth="yes"/>
      <point x="182" y="577" smooth="yes"/>
      <point x="50" y="427" smooth="yes"/>
      <point x="50" y="229" type="curve" smooth="yes"/>
      <point x="50" y="80" smooth="yes"/>
      <point x="127" y="-15" smooth="yes"/>
    </contour>
    <contour>
      <point x="201" y="299" type="line"/>
      <point x="217" y="428" smooth="yes"/>
      <point x="270" y="515" smooth="yes"/>
      <point x="333" y="515" type="curve" smooth="yes"/>
      <point x="365" y="515" smooth="yes"/>
      <point x="386" y="489" smooth="yes"/>
      <point x="386" y="452" type="curve" smooth="yes"/>
      <point x="386" y="359" smooth="yes"/>
      <point x="319" y="299" smooth="yes"/>
      <point x="216" y="299" type="curve" smooth="yes"/>
    </contour>
  </outline>
</glyph>
<glyph name="t" format="1">
  <advance width="386"/>
  <unicode hex="0074"/>
  <outline>
    <contour>
      <point x="409" y="584" type="curve"/>
      <point x="379" y="559"/>
      <point x="333" y="552"/>
      <point x="287" y="551" type="curve"/>
      <point x="289" y="575" smooth="yes"/>
      <point x="291" y="597" smooth="yes"/>
      <point x="291" y="618" type="curve" smooth="yes"/>
      <point x="291" y="696"/>
      <point x="255" y="741"/>
      <point x="165" y="750" type="curve"/>
      <point x="165" y="728" smooth="yes"/>
      <point x="166" y="706" smooth="yes"/>
      <point x="166" y="685" type="curve" smooth="yes"/>
      <point x="166" y="638"/>
      <point x="163" y="595"/>
      <point x="159" y="554" type="curve"/>
      <point x="90" y="553" smooth="yes"/>
      <point x="35" y="537" smooth="yes"/>
      <point x="35" y="461" type="curve" smooth="yes"/>
      <point x="35" y="450"/>
      <point x="36" y="439"/>
      <point x="37" y="428" type="curve"/>
      <point x="78" y="446"/>
      <point x="114" y="457"/>
      <point x="148" y="463" type="curve"/>
      <point x="129" y="335" smooth="yes"/>
      <point x="100" y="231" smooth="yes"/>
      <point x="100" y="122" type="curve" smooth="yes" name="hr01"/>
      <point x="100" y="26"/>
      <point x="128" y="-29"/>
      <point x="235" y="-57" type="curve"/>
      <point x="226" y="-37" smooth="yes"/>
      <point x="221" y="7" smooth="yes"/>
      <point x="221" y="63" type="curve" smooth="yes"/>
      <point x="221" y="191"/>
      <point x="255" y="342"/>
      <point x="276" y="470" type="curve"/>
      <point x="297" y="469" smooth="yes"/>
      <point x="319" y="469" smooth="yes"/>
      <point x="343" y="469" type="curve" smooth="yes"/>
      <point x="384" y="469" smooth="yes"/>
      <point x="411" y="486" smooth="yes"/>
      <point x="411" y="554" type="curve" smooth="yes"/>
      <point x="411" y="564"/>
      <point x="410" y="574"/>
    </contour>
  </outline>
</glyph>
<glyph name="w" format="1">
  <advance width="769"/>
  <unicode hex="0077"/>
  <outline>
    <contour>
      <point x="547" y="0" type="curve" name="hr00"/>
      <point x="610" y="160" smooth="yes"/>
      <point x="764" y="418" smooth="yes"/>
      <point x="764" y="502" type="curve" smooth="yes"/>
      <point x="764" y="544"/>
      <point x="741" y="569"/>
      <point x="685" y="599" type="curve"/>
      <point x="682" y="500"/>
      <point x="598" y="289"/>
      <point x="534" y="138" type="curve"/>
      <point x="503" y="395" smooth="yes"/>
      <point x="523" y="586" smooth="yes"/>
      <point x="424" y="586" type="curve" smooth="yes"/>
      <point x="399" y="586"/>
      <point x="361" y="575"/>
      <point x="329" y="560" type="curve"/>
      <point x="340" y="541"/>
      <point x="349" y="518"/>
      <point x="357" y="491" type="curve"/>
      <point x="328" y="385"/>
      <point x="271" y="247"/>
      <point x="226" y="138" type="curve"/>
      <point x="195" y="395" smooth="yes"/>
      <point x="215" y="586" smooth="yes"/>
      <point x="116" y="586" type="curve" smooth="yes"/>
      <point x="91" y="586"/>
      <point x="53" y="575"/>
      <point x="21" y="560" type="curve"/>
      <point x="86" y="450" smooth="yes"/>
      <point x="96" y="182" smooth="yes"/>
      <point x="137" y="1" type="curve" smooth="yes"/>
      <point x="140" y="-10" smooth="yes"/>
      <point x="153" y="-14" smooth="yes"/>
      <point x="170" y="-14" type="curve" smooth="yes"/>
      <point x="198" y="-14"/>
      <point x="232" y="-4"/>
      <point x="239" y="0" type="curve"/>
      <point x="275" y="93"/>
      <point x="343" y="219"/>
      <point x="393" y="326" type="curve"/>
      <point x="410" y="218" smooth="yes"/>
      <point x="423" y="97" smooth="yes"/>
      <point x="445" y="1" type="curve" smooth="yes"/>
      <point x="448" y="-10" smooth="yes"/>
      <point x="461" y="-14" smooth="yes"/>
      <point x="478" y="-14" type="curve" smooth="yes"/>
      <point x="506" y="-14"/>
      <point x="540" y="-4"/>
    </contour>
  </outline>
</glyph>
<glyph name="x" format="1">
  <advance width="555"/>
  <unicode hex="0078"/>
  <outline>
    <contour>
      <point x="451" y="-31" type="curve" smooth="yes" name="hr00"/>
      <point x="476" y="-31"/>
      <point x="497" y="-27"/>
      <point x="515" y="-21" type="curve"/>
      <point x="468" y="14"/>
      <point x="377" y="149"/>
      <point x="326" y="293" type="curve"/>
      <point x="425" y="384" smooth="yes"/>
      <point x="517" y="436" smooth="yes"/>
      <point x="517" y="508" type="curve" smooth="yes"/>
      <point x="517" y="534"/>
      <point x="497" y="562"/>
      <point x="458" y="595" type="curve"/>
      <point x="446" y="529"/>
      <point x="378" y="451"/>
      <point x="300" y="375" type="curve"/>
      <point x="260" y="502" smooth="yes"/>
      <point x="233" y="586" smooth="yes"/>
      <point x="169" y="586" type="curve" smooth="yes"/>
      <point x="144" y="586"/>
      <point x="107" y="575"/>
      <point x="78" y="560" type="curve"/>
      <point x="128" y="496"/>
      <point x="166" y="389"/>
      <point x="203" y="284" type="curve"/>
      <point x="113" y="199" smooth="yes"/>
      <point x="33" y="120" smooth="yes"/>
      <point x="33" y="68" type="curve" smooth="yes"/>
      <point x="33" y="35"/>
      <point x="58" y="-1"/>
      <point x="108" y="-42" type="curve"/>
      <point x="138" y="59"/>
      <point x="184" y="137"/>
      <point x="235" y="199" type="curve"/>
      <point x="286" y="74" smooth="yes"/>
      <point x="347" y="-31" smooth="yes"/>
    </contour>
  </outline>
</glyph>
<glyph name="braceleft" format="1">
  <advance width="372"/>
  <unicode hex="007B"/>
  <outline>
    <contour>
      <point x="252" y="171" type="curve" smooth="yes"/>
      <point x="252" y="252"/>
      <point x="212" y="322"/>
      <point x="174" y="330" type="curve"/>
      <point x="253" y="356" smooth="yes"/>
      <point x="282" y="481" smooth="yes"/>
      <point x="282" y="610" type="curve" smooth="yes" name="hr01"/>
      <point x="282" y="679" smooth="yes"/>
      <point x="293" y="712" smooth="yes"/>
      <point x="360" y="712" type="curve" smooth="yes"/>
      <point x="372" y="712"/>
      <point x="386" y="711"/>
      <point x="402" y="709" type="curve"/>
      <point x="402" y="758" smooth="yes"/>
      <point x="386" y="783" smooth="yes"/>
      <point x="336" y="783" type="curve" smooth="yes"/>
      <point x="187" y="783" smooth="yes"/>
      <point x="138" y="724" smooth="yes"/>
      <point x="138" y="595" type="curve" smooth="yes"/>
      <point x="138" y="490"/>
      <point x="138" y="361"/>
      <point x="47" y="348" type="curve"/>
      <point x="45" y="312" type="line"/>
      <point x="99" y="310" smooth="yes"/>
      <point x="113" y="245" smooth="yes"/>
      <point x="113" y="168" type="curve" smooth="yes" name="hr02"/>
      <point x="113" y="101" smooth="yes"/>
      <point x="99" y="40" smooth="yes"/>
      <point x="99" y="-10" type="curve" smooth="yes" name="hr03"/>
      <point x="99" y="-89" smooth="yes"/>
      <point x="138" y="-139" smooth="yes"/>
      <point x="277" y="-139" type="curve" smooth="yes"/>
      <point x="334" y="-139"/>
      <point x="350" y="-123"/>
      <point x="350" y="-65" type="curve"/>
      <point x="334" y="-68" smooth="yes"/>
      <point x="320" y="-69" smooth="yes"/>
      <point x="308" y="-69" type="curve" smooth="yes"/>
      <point x="251" y="-69" smooth="yes"/>
      <point x="239" y="-39" smooth="yes"/>
      <point x="239" y="8" type="curve" smooth="yes"/>
      <point x="239" y="52" smooth="yes"/>
      <point x="252" y="111" smooth="yes"/>
    </contour>
  </outline>
</glyph>
<glyph name="section" format="1">
  <advance width="620"/>
  <unicode hex="00A7"/>
  <outline>
    <contour>
      <point x="539" y="270" type="curve" smooth="yes"/>
      <point x="539" y="431" smooth="yes"/>
      <point x="254" y="484" smooth="yes"/>
      <point x="254" y="650" type="curve" smooth="yes"/>
      <point x="254" y="720" smooth="yes"/>
      <point x="293" y="747" smooth="yes"/>
      <point x="347" y="747" type="curve" smooth="yes"/>
      <point x="392" y="747" smooth="yes"/>
      <point x="443" y="719" smooth="yes"/>
      <point x="443" y="652" type="curve" smooth="yes"/>
      <point x="443" y="619"/>
      <point x="420" y="583"/>
      <point x="393" y="565" type="curve"/>
      <point x="406" y="559" smooth="yes"/>
      <point x="422" y="557" smooth="yes"/>
      <point x="433" y="557" type="curve" smooth="yes"/>
      <point x="509" y="557" smooth="yes"/>
      <point x="548" y="615" smooth="yes"/>
      <point x="548" y="666" type="curve" smooth="yes"/>
      <point x="548" y="730" smooth="yes"/>
      <point x="489" y="813" smooth="yes"/>
      <point x="356" y="813" type="curve" smooth="yes"/>
      <point x="200" y="813" smooth="yes"/>
      <point x="126" y="738" smooth="yes"/>
      <point x="126" y="630" type="curve" smooth="yes"/>
      <point x="126" y="517"/>
      <point x="199" y="451"/>
      <point x="272" y="399" type="curve"/>
      <point x="151" y="384" smooth="yes"/>
      <point x="93" y="315" smooth="yes"/>
      <point x="93" y="219" type="curve" smooth="yes" name="hr01"/>
      <point x="93" y="17" smooth="yes"/>
      <point x="375" y="-37" smooth="yes"/>
      <point x="375" y="-169" type="curve" smooth="yes"/>
      <point x="375" y="-234" smooth="yes"/>
      <point x="319" y="-264" smooth="yes"/>
      <point x="270" y="-264" type="curve" smooth="yes"/>
      <point x="191" y="-264" smooth="yes"/>
      <point x="156" y="-209" smooth="yes"/>
      <point x="156" y="-146" type="curve" smooth="yes" name="hr02"/>
      <point x="156" y="-118"/>
      <point x="167" y="-87"/>
      <point x="182" y="-62" type="curve"/>
      <point x="173" y="-60" smooth="yes"/>
      <point x="162" y="-59" smooth="yes"/>
      <point x="153" y="-59" type="curve" smooth="yes"/>
      <point x="79" y="-59" smooth="yes"/>
      <point x="33" y="-106" smooth="yes"/>
      <point x="33" y="-178" type="curve" smooth="yes"/>
      <point x="33" y="-258" smooth="yes"/>
      <point x="112" y="-336" smooth="yes"/>
      <point x="261" y="-336" type="curve" smooth="yes"/>
      <point x="411" y="-336" smooth="yes"/>
      <point x="506" y="-246" smooth="yes"/>
      <point x="506" y="-140" type="curve" smooth="yes"/>
      <point x="506" y="-37"/>
      <point x="411" y="18"/>
      <point x="332" y="77" type="curve"/>
      <point x="461" y="91" smooth="yes"/>
      <point x="539" y="174" smooth="yes"/>
    </contour>
    <contour>
      <point x="212" y="241" type="curve"/>
      <point x="212" y="296" smooth="yes"/>
      <point x="259" y="339" smooth="yes"/>
      <point x="314" y="339" type="curve" smooth="yes"/>
      <point x="371" y="339" smooth="yes"/>
      <point x="415" y="296" smooth="yes"/>
      <point x="415" y="241" type="curve" smooth="yes" name="hr04"/>
      <point x="415" y="187" smooth="yes"/>
      <point x="371" y="144" smooth="yes"/>
      <point x="314" y="144" type="curve" smooth="yes"/>
      <point x="259" y="144" smooth="yes"/>
      <point x="212" y="187" smooth="yes"/>
    </contour>
  </outline>
</glyph>
<glyph name="registered" format="1">
  <advance width="667"/>
  <unicode hex="00AE"/>
  <outline>
    <contour>
      <point x="227" y="731" type="curve" name="hr00"/>
      <point x="224" y="621" smooth="yes"/>
      <point x="185" y="470" smooth="yes"/>
      <point x="185" y="419" type="curve" smooth="yes"/>
      <point x="185" y="392" smooth="yes"/>
      <point x="201" y="381" smooth="yes"/>
      <point x="240" y="381" type="curve" smooth="yes"/>
      <point x="245" y="381"/>
      <point x="255" y="381"/>
      <point x="267" y="383" type="curve"/>
      <point x="267" y="434"/>
      <point x="271" y="492"/>
      <point x="278" y="543" type="curve"/>
      <point x="278" y="543"/>
      <point x="295" y="545"/>
      <point x="300" y="545" type="curve"/>
      <point x="322" y="486" smooth="yes"/>
      <point x="340" y="380" smooth="yes"/>
      <point x="419" y="380" type="curve" smooth="yes"/>
      <point x="431" y="380"/>
      <point x="444" y="382"/>
      <point x="463" y="386" type="curve"/>
      <point x="442" y="407"/>
      <point x="399" y="466"/>
      <point x="375" y="558" type="curve"/>
      <point x="438" y="583" smooth="yes"/>
      <point x="460" y="635" smooth="yes"/>
      <point x="460" y="671" type="curve" smooth="yes"/>
      <point x="460" y="733" smooth="yes"/>
      <point x="405" y="752" smooth="yes"/>
      <point x="345" y="752" type="curve" smooth="yes"/>
      <point x="303" y="752"/>
      <point x="258" y="742"/>
    </contour>
    <contour>
      <point x="298" y="699" type="curve"/>
      <point x="312" y="704" smooth="yes"/>
      <point x="325" y="706" smooth="yes"/>
      <point x="335" y="706" type="curve" smooth="yes"/>
      <point x="368" y="706" smooth="yes"/>
      <point x="382" y="683" smooth="yes"/>
      <point x="382" y="657" type="curve" smooth="yes"/>
      <point x="382" y="622"/>
      <point x="345" y="579"/>
      <point x="282" y="575" type="curve"/>
      <point x="288" y="612"/>
      <point x="294" y="659"/>
    </contour>
    <contour>
      <point x="368" y="814" type="curve" smooth="yes"/>
      <point x="465" y="814" smooth="yes"/>
      <point x="570" y="755" smooth="yes"/>
      <point x="570" y="579" type="curve" smooth="yes"/>
      <point x="570" y="447" smooth="yes"/>
      <point x="478" y="320" smooth="yes"/>
      <point x="299" y="320" type="curve" smooth="yes"/>
      <point x="202" y="320" smooth="yes"/>
      <point x="97" y="379" smooth="yes"/>
      <point x="97" y="555" type="curve" smooth="yes"/>
      <point x="97" y="687" smooth="yes"/>
      <point x="189" y="814" smooth="yes"/>
    </contour>
    <contour>
      <point x="370" y="861" type="curve" smooth="yes"/>
      <point x="149" y="861" smooth="yes"/>
      <point x="32" y="711" smooth="yes"/>
      <point x="32" y="555" type="curve" smooth="yes"/>
      <point x="32" y="344" smooth="yes"/>
      <point x="170" y="273" smooth="yes"/>
      <point x="297" y="273" type="curve" smooth="yes"/>
      <point x="518" y="273" smooth="yes"/>
      <point x="635" y="423" smooth="yes"/>
      <point x="635" y="579" type="curve" smooth="yes"/>
      <point x="635" y="790" smooth="yes"/>
      <point x="497" y="861" smooth="yes"/>
    </contour>
  </outline>
</glyph>
<glyph name="macron" format="1">
  <advance width="424"/>
  <unicode hex="00AF"/>
  <outline>
    <contour>
      <point x="306" y="793" type="curve" smooth="yes" name="hr00"/>
      <point x="246" y="793" smooth="yes"/>
      <point x="202" y="779" smooth="yes"/>
      <point x="153" y="779" type="curve" smooth="yes"/>
      <point x="118" y="779"/>
      <point x="87" y="782"/>
      <point x="51" y="790" type="curve"/>
      <point x="51" y="782" smooth="yes"/>
      <point x="50" y="776" smooth="yes"/>
      <point x="50" y="768" type="curve" smooth="yes"/>
      <point x="50" y="708" smooth="yes"/>
      <point x="60" y="664" smooth="yes"/>
      <point x="118" y="664" type="curve" smooth="yes"/>
      <point x="178" y="664" smooth="yes"/>
      <point x="222" y="678" smooth="yes"/>
      <point x="271" y="678" type="curve" smooth="yes"/>
      <point x="306" y="678"/>
      <point x="337" y="675"/>
      <point x="373" y="667" type="curve"/>
      <point x="373" y="675" smooth="yes"/>
      <point x="374" y="681" smooth="yes"/>
      <point x="374" y="689" type="curve" smooth="yes"/>
      <point x="374" y="749" smooth="yes"/>
      <point x="364" y="793" smooth="yes"/>
    </contour>
  </outline>
</glyph>
<glyph name="ordmasculine" format="1">
  <advance width="380"/>
  <unicode hex="00BA"/>
  <outline>
    <contour>
      <point x="219" y="730" type="curve" smooth="yes"/>
      <point x="240" y="730" smooth="yes"/>
      <point x="253" y="706" smooth="yes"/>
      <point x="253" y="643" type="curve" smooth="yes"/>
      <point x="253" y="567" smooth="yes"/>
      <point x="225" y="483" smooth="yes"/>
      <point x="176" y="483" type="curve" smooth="yes"/>
      <point x="144" y="483" smooth="yes"/>
      <point x="131" y="525" smooth="yes"/>
      <point x="131" y="577" type="curve" smooth="yes"/>
      <point x="131" y="647" smooth="yes"/>
      <point x="172" y="730" smooth="yes"/>
    </contour>
    <contour>
      <point x="198" y="772" type="curve"/>
      <point x="198" y="786"/>
      <point x="183" y="796"/>
      <point x="166" y="796" type="curve" name="hr01"/>
      <point x="80" y="775" smooth="yes"/>
      <point x="26" y="688" smooth="yes"/>
      <point x="26" y="587" type="curve" smooth="yes"/>
      <point x="26" y="476" smooth="yes"/>
      <point x="97" y="427" smooth="yes"/>
      <point x="163" y="427" type="curve" smooth="yes"/>
      <point x="296" y="427" smooth="yes"/>
      <point x="350" y="549" smooth="yes"/>
      <point x="350" y="652" type="curve" smooth="yes"/>
      <point x="350" y="736" smooth="yes"/>
      <point x="306" y="786" smooth="yes"/>
      <point x="254" y="786" type="curve" smooth="yes" name="hr02"/>
      <point x="234" y="786"/>
      <point x="219" y="783"/>
    </contour>
  </outline>
</glyph>
<glyph name="questiondown" format="1">
  <advance width="373"/>
  <unicode hex="00BF"/>
  <outline>
    <contour>
      <point x="298" y="216" type="curve" smooth="yes"/>
      <point x="298" y="263"/>
      <point x="277" y="311"/>
      <point x="176" y="337" type="curve"/>
      <point x="182" y="323" smooth="yes"/>
      <point x="187" y="305" smooth="yes"/>
      <point x="187" y="275" type="curve" smooth="yes"/>
      <point x="187" y="152" smooth="yes"/>
      <point x="-60" y="117" smooth="yes"/>
      <point x="-60" y="-63" type="curve" smooth="yes"/>
      <point x="-60" y="-183" smooth="yes"/>
      <point x="40" y="-233" smooth="yes"/>
      <point x="140" y="-233" type="curve" smooth="yes"/>
      <point x="257" y="-233" smooth="yes"/>
      <point x="353" y="-178" smooth="yes"/>
      <point x="353" y="-89" type="curve" smooth="yes" name="hr01"/>
      <point x="353" y="-31" smooth="yes"/>
      <point x="311" y="6" smooth="yes"/>
      <point x="258" y="6" type="curve" smooth="yes"/>
      <point x="245" y="6"/>
      <point x="229" y="4"/>
      <point x="213" y="-2" type="curve"/>
      <point x="229" y="-21" smooth="yes"/>
      <point x="238" y="-45" smooth="yes"/>
      <point x="238" y="-69" type="curve" smooth="yes"/>
      <point x="238" y="-117" smooth="yes"/>
      <point x="209" y="-163" smooth="yes"/>
      <point x="145" y="-163" type="curve" smooth="yes"/>
      <point x="108" y="-163" smooth="yes"/>
      <point x="70" y="-139" smooth="yes"/>
      <point x="70" y="-90" type="curve" smooth="yes"/>
      <point x="70" y="42" smooth="yes"/>
      <point x="298" y="90" smooth="yes"/>
    </contour>
    <contour>
      <point x="299" y="407" type="curve"/>
      <point x="307" y="436" smooth="yes"/>
      <point x="317" y="463" smooth="yes"/>
      <point x="317" y="492" type="curve" smooth="yes" name="hr03"/>
      <point x="317" y="542" smooth="yes"/>
      <point x="280" y="554" smooth="yes"/>
      <point x="243" y="554" type="curve" smooth="yes"/>
      <point x="219" y="554"/>
      <point x="193" y="550"/>
      <point x="172" y="544" type="curve"/>
      <point x="164" y="515" smooth="yes"/>
      <point x="154" y="488" smooth="yes"/>
      <point x="154" y="459" type="curve" smooth="yes"/>
      <point x="154" y="409" smooth="yes"/>
      <point x="191" y="397" smooth="yes"/>
      <point x="228" y="397" type="curve" smooth="yes"/>
      <point x="252" y="397"/>
      <point x="278" y="401"/>
    </contour>
  </outline>
</glyph>
<glyph name="germandbls" format="1">
  <advance width="723"/>
  <unicode hex="00DF"/>
  <outline>
    <contour>
      <point x="492" y="459" type="line"/>
      <point x="591" y="513" smooth="yes"/>
      <point x="652" y="608" smooth="yes"/>
      <point x="652" y="695" type="curve" smooth="yes"/>
      <point x="652" y="780" smooth="yes"/>
      <point x="593" y="860" smooth="yes"/>
      <point x="452" y="860" type="curve" smooth="yes"/>
      <point x="351" y="860"/>
      <point x="223" y="794"/>
      <point x="164" y="554" type="curve"/>
      <point x="92" y="553" smooth="yes"/>
      <point x="35" y="539" smooth="yes"/>
      <point x="35" y="461" type="curve" smooth="yes"/>
      <point x="35" y="450"/>
      <point x="36" y="439"/>
      <point x="37" y="428" type="curve"/>
      <point x="77" y="446"/>
      <point x="112" y="456"/>
      <point x="146" y="462" type="curve"/>
      <point x="123" y="324" smooth="yes"/>
      <point x="106" y="192" smooth="yes"/>
      <point x="106" y="83" type="curve" smooth="yes"/>
      <point x="106" y="-4"/>
      <point x="145" y="-81"/>
      <point x="246" y="-113" type="curve"/>
      <point x="231" y="-27" smooth="yes"/>
      <point x="230" y="-15" smooth="yes"/>
      <point x="230" y="63" type="curve" smooth="yes"/>
      <point x="230" y="199" smooth="yes"/>
      <point x="255" y="379" smooth="yes"/>
      <point x="273" y="507" type="curve" smooth="yes"/>
      <point x="302" y="713" smooth="yes"/>
      <point x="368" y="786" smooth="yes"/>
      <point x="438" y="786" type="curve" smooth="yes"/>
      <point x="498" y="786" smooth="yes"/>
      <point x="528" y="739" smooth="yes"/>
      <point x="528" y="674" type="curve" smooth="yes"/>
      <point x="528" y="591"/>
      <point x="475" y="505"/>
      <point x="384" y="447" type="curve"/>
      <point x="400" y="406" type="line"/>
      <point x="509" y="406" smooth="yes"/>
      <point x="553" y="314" smooth="yes"/>
      <point x="553" y="221" type="curve" smooth="yes" name="hr01"/>
      <point x="553" y="126" smooth="yes"/>
      <point x="506" y="29" smooth="yes"/>
      <point x="439" y="29" type="curve" smooth="yes"/>
      <point x="392" y="29" smooth="yes"/>
      <point x="376" y="62" smooth="yes"/>
      <point x="376" y="104" type="curve" smooth="yes"/>
      <point x="376" y="148"/>
      <point x="401" y="204"/>
      <point x="421" y="225" type="curve"/>
      <point x="404" y="232" smooth="yes"/>
      <point x="387" y="235" smooth="yes"/>
      <point x="373" y="235" type="curve" smooth="yes"/>
      <point x="305" y="235" smooth="yes"/>
      <point x="261" y="172" smooth="yes"/>
      <point x="261" y="109" type="curve" smooth="yes"/>
      <point x="261" y="38" smooth="yes"/>
      <point x="308" y="-33" smooth="yes"/>
      <point x="428" y="-33" type="curve" smooth="yes"/>
      <point x="604" y="-33" smooth="yes"/>
      <point x="703" y="105" smooth="yes"/>
      <point x="703" y="235" type="curve" smooth="yes"/>
      <point x="703" y="343"/>
      <point x="626" y="438"/>
      <point x="493" y="454" type="curve"/>
    </contour>
  </outline>
</glyph>
<glyph name="ae" format="1">
  <advance width="893"/>
  <unicode hex="00E6"/>
  <outline>
    <contour>
      <point x="593" y="-15" type="curve" smooth="yes"/>
      <point x="689" y="-15"/>
      <point x="771" y="33"/>
      <point x="826" y="120" type="curve"/>
      <point x="826" y="138"/>
      <point x="813" y="151"/>
      <point x="790" y="157" type="curve"/>
      <point x="747" y="93" smooth="yes"/>
      <point x="694" y="59" smooth="yes"/>
      <point x="637" y="59" type="curve" smooth="yes"/>
      <point x="576" y="59" smooth="yes"/>
      <point x="542" y="118" smooth="yes"/>
      <point x="542" y="226" type="curve" smooth="yes"/>
      <point x="542" y="241"/>
      <point x="542" y="250"/>
      <point x="543" y="257" type="curve"/>
      <point x="572" y="250" smooth="yes"/>
      <point x="605" y="246" smooth="yes"/>
      <point x="637" y="246" type="curve" smooth="yes"/>
      <point x="772" y="246" smooth="yes"/>
      <point x="863" y="321" smooth="yes"/>
      <point x="863" y="432" type="curve" smooth="yes"/>
      <point x="863" y="522" smooth="yes"/>
      <point x="803" y="577" smooth="yes"/>
      <point x="703" y="577" type="curve" smooth="yes"/>
      <point x="627" y="577"/>
      <point x="561" y="549"/>
      <point x="509" y="502" type="curve"/>
      <point x="508" y="555" smooth="yes"/>
      <point x="506" y="570" smooth="yes"/>
      <point x="481" y="570" type="curve" smooth="yes"/>
      <point x="469" y="570"/>
      <point x="445" y="569"/>
      <point x="430" y="568" type="curve"/>
      <point x="435" y="528" smooth="yes"/>
      <point x="436" y="490" smooth="yes"/>
      <point x="436" y="454" type="curve" smooth="yes"/>
      <point x="436" y="274" smooth="yes"/>
      <point x="349" y="83" smooth="yes"/>
      <point x="253" y="83" type="curve" smooth="yes"/>
      <point x="209" y="83" smooth="yes"/>
      <point x="186" y="128" smooth="yes"/>
      <point x="186" y="189" type="curve" smooth="yes"/>
      <point x="186" y="309"/>
      <point x="262" y="486"/>
      <point x="407" y="537" type="curve"/>
      <point x="387" y="549" smooth="yes"/>
      <point x="358" y="557" smooth="yes"/>
      <point x="326" y="557" type="curve" smooth="yes"/>
      <point x="147" y="557" smooth="yes"/>
      <point x="38" y="346" smooth="yes"/>
      <point x="38" y="181" type="curve" smooth="yes"/>
      <point x="38" y="50" smooth="yes"/>
      <point x="103" y="-12" smooth="yes"/>
      <point x="181" y="-12" type="curve" smooth="yes" name="hr01"/>
      <point x="260" y="-12"/>
      <point x="355" y="50"/>
      <point x="402" y="157" type="curve"/>
      <point x="423" y="50" smooth="yes"/>
      <point x="494" y="-15" smooth="yes"/>
    </contour>
    <contour>
      <point x="547" y="299" type="line"/>
      <point x="562" y="427" smooth="yes"/>
      <point x="616" y="515" smooth="yes"/>
      <point x="679" y="515" type="curve" smooth="yes"/>
      <point x="711" y="515" smooth="yes"/>
      <point x="732" y="490" smooth="yes"/>
      <point x="732" y="452" type="curve" smooth="yes"/>
      <point x="732" y="359" smooth="yes"/>
      <point x="665" y="299" smooth="yes"/>
      <point x="562" y="299" type="curve" smooth="yes"/>
    </contour>
  </outline>
</glyph>
<glyph name="thorn" format="1">
  <advance width="646"/>
  <unicode hex="00FE"/>
  <outline>
    <contour>
      <point x="206" y="343" type="curve"/>
      <point x="226" y="548" smooth="yes"/>
      <point x="249" y="667" smooth="yes"/>
      <point x="249" y="751" type="curve" smooth="yes"/>
      <point x="249" y="845"/>
      <point x="223" y="898"/>
      <point x="119" y="926" type="curve"/>
      <point x="127" y="906" smooth="yes"/>
      <point x="131" y="864" smooth="yes"/>
      <point x="131" y="809" type="curve" smooth="yes"/>
      <point x="131" y="460" smooth="yes"/>
      <point x="35" y="-129" smooth="yes"/>
      <point x="35" y="-213" type="curve" smooth="yes" name="hr01"/>
      <point x="35" y="-308"/>
      <point x="98" y="-326"/>
      <point x="196" y="-329" type="curve"/>
      <point x="181" y="-252" smooth="yes"/>
      <point x="176" y="-178" smooth="yes"/>
      <point x="176" y="-108" type="curve" smooth="yes"/>
      <point x="176" y="215" smooth="yes"/>
      <point x="257" y="458" smooth="yes"/>
      <point x="381" y="458" type="curve" smooth="yes"/>
      <point x="425" y="458" smooth="yes"/>
      <point x="448" y="412" smooth="yes"/>
      <point x="448" y="350" type="curve" smooth="yes"/>
      <point x="448" y="229"/>
      <point x="376" y="49"/>
      <point x="234" y="16" type="curve"/>
      <point x="263" y="5" smooth="yes"/>
      <point x="289" y="0" smooth="yes"/>
      <point x="317" y="0" type="curve" smooth="yes"/>
      <point x="470" y="0" smooth="yes"/>
      <point x="596" y="160" smooth="yes"/>
      <point x="596" y="360" type="curve" smooth="yes"/>
      <point x="596" y="491" smooth="yes"/>
      <point x="527" y="553" smooth="yes"/>
      <point x="449" y="553" type="curve" smooth="yes"/>
      <point x="369" y="553"/>
      <point x="270" y="490"/>
    </contour>
  </outline>
</glyph>
<glyph name="OE" format="1">
  <advance width="1047"/>
  <unicode hex="0152"/>
  <outline>
    <contour>
      <point x="1032" y="799" type="curve"/>
      <point x="959" y="785" smooth="yes"/>
      <point x="890" y="780" smooth="yes"/>
      <point x="828" y="780" type="curve" smooth="yes"/>
      <point x="691" y="780" smooth="yes"/>
      <point x="582" y="804" smooth="yes"/>
      <point x="513" y="804" type="curve" smooth="yes"/>
      <point x="396" y="804"/>
      <point x="268" y="716"/>
      <point x="210" y="553" type="curve"/>
      <point x="231" y="680"/>
      <point x="300" y="761"/>
      <point x="366" y="809" type="curve"/>
      <point x="365" y="818"/>
      <point x="353" y="828"/>
      <point x="342" y="830" type="curve"/>
      <point x="163" y="786" smooth="yes"/>
      <point x="50" y="600" smooth="yes"/>
      <point x="50" y="379" type="curve" smooth="yes"/>
      <point x="50" y="191" smooth="yes"/>
      <point x="141" y="-25" smooth="yes"/>
      <point x="357" y="-25" type="curve" smooth="yes"/>
      <point x="488" y="-25" smooth="yes"/>
      <point x="533" y="0" smooth="yes"/>
      <point x="681" y="0" type="curve" smooth="yes" name="hr01"/>
      <point x="735" y="0" smooth="yes"/>
      <point x="794" y="-11" smooth="yes"/>
      <point x="845" y="-11" type="curve" smooth="yes" name="hr02"/>
      <point x="924" y="-11"/>
      <point x="986" y="14"/>
      <point x="998" y="144" type="curve"/>
      <point x="932" y="122"/>
      <point x="791" y="106"/>
      <point x="649" y="106" type="curve"/>
      <point x="650" y="184"/>
      <point x="657" y="262"/>
      <point x="665" y="334" type="curve"/>
      <point x="688" y="335" smooth="yes"/>
      <point x="711" y="335" smooth="yes"/>
      <point x="732" y="335" type="curve" smooth="yes"/>
      <point x="761" y="335" smooth="yes"/>
      <point x="792" y="334" smooth="yes"/>
      <point x="828" y="334" type="curve" smooth="yes"/>
      <point x="869" y="334" smooth="yes"/>
      <point x="896" y="357" smooth="yes"/>
      <point x="896" y="425" type="curve" smooth="yes"/>
      <point x="896" y="435"/>
      <point x="895" y="445"/>
      <point x="894" y="455" type="curve"/>
      <point x="861" y="428" smooth="yes"/>
      <point x="810" y="422" smooth="yes"/>
      <point x="759" y="422" type="curve" smooth="yes"/>
      <point x="739" y="422"/>
      <point x="706" y="422"/>
      <point x="676" y="423" type="curve"/>
      <point x="688" y="518"/>
      <point x="701" y="596"/>
      <point x="705" y="653" type="curve"/>
      <point x="733" y="649" smooth="yes"/>
      <point x="763" y="646" smooth="yes"/>
      <point x="792" y="646" type="curve" smooth="yes"/>
      <point x="910" y="646"/>
      <point x="1024" y="685"/>
    </contour>
    <contour>
      <point x="459" y="716" type="curve" smooth="yes"/>
      <point x="505" y="716"/>
      <point x="542" y="708"/>
      <point x="575" y="691" type="curve"/>
      <point x="566" y="514"/>
      <point x="518" y="214"/>
      <point x="507" y="91" type="curve"/>
      <point x="484" y="67" smooth="yes"/>
      <point x="426" y="45" smooth="yes"/>
      <point x="372" y="45" type="curve" smooth="yes" name="hr03"/>
      <point x="254" y="45" smooth="yes"/>
      <point x="205" y="175" smooth="yes"/>
      <point x="205" y="330" type="curve" smooth="yes"/>
      <point x="205" y="512" smooth="yes"/>
      <point x="318" y="716" smooth="yes"/>
    </contour>
  </outline>
</glyph>
<glyph name="caron" format="1">
  <advance width="450"/>
  <unicode hex="02C7"/>
  <outline>
    <contour>
      <point x="172" y="856" type="curve" smooth="yes" name="hr00"/>
      <point x="150" y="856"/>
      <point x="130" y="854"/>
      <point x="100" y="845" type="curve"/>
      <point x="204" y="729"/>
      <point x="161" y="620"/>
      <point x="264" y="620" type="curve"/>
      <point x="307" y="670"/>
      <point x="332" y="710"/>
      <point x="452" y="784" type="curve"/>
      <point x="451" y="833"/>
      <point x="420" y="860"/>
      <point x="401" y="873" type="curve"/>
      <point x="331" y="833"/>
      <point x="297" y="792"/>
      <point x="267" y="746" type="curve"/>
      <point x="246" y="831" smooth="yes"/>
      <point x="233" y="856" smooth="yes"/>
    </contour>
  </outline>
</glyph>
<glyph name="ring" format="1">
  <advance width="339"/>
  <unicode hex="02DA"/>
  <outline>
    <contour>
      <point x="252" y="703" type="curve" name="hr00"/>
      <point x="242" y="700" smooth="yes"/>
      <point x="228" y="698" smooth="yes"/>
      <point x="216" y="698" type="curve" smooth="yes"/>
      <point x="197" y="698" smooth="yes"/>
      <point x="177" y="704" smooth="yes"/>
      <point x="177" y="731" type="curve" smooth="yes"/>
      <point x="177" y="746"/>
      <point x="183" y="760"/>
      <point x="187" y="776" type="curve"/>
      <point x="197" y="779" smooth="yes"/>
      <point x="211" y="781" smooth="yes"/>
      <point x="223" y="781" type="curve" smooth="yes"/>
      <point x="242" y="781" smooth="yes"/>
      <point x="262" y="775" smooth="yes"/>
      <point x="262" y="748" type="curve" smooth="yes"/>
      <point x="262" y="733"/>
      <point x="256" y="719"/>
    </contour>
    <contour>
      <point x="317" y="634" type="curve"/>
      <point x="332" y="679" smooth="yes"/>
      <point x="345" y="721" smooth="yes"/>
      <point x="345" y="765" type="curve" smooth="yes"/>
      <point x="345" y="842" smooth="yes"/>
      <point x="287" y="862" smooth="yes"/>
      <point x="232" y="862" type="curve" smooth="yes"/>
      <point x="194" y="862"/>
      <point x="154" y="854"/>
      <point x="122" y="845" type="curve"/>
      <point x="107" y="800" smooth="yes"/>
      <point x="94" y="758" smooth="yes"/>
      <point x="94" y="714" type="curve" smooth="yes"/>
      <point x="94" y="637" smooth="yes"/>
      <point x="152" y="617" smooth="yes"/>
      <point x="207" y="617" type="curve" smooth="yes"/>
      <point x="245" y="617"/>
      <point x="285" y="625"/>
    </contour>
  </outline>
</glyph>
<glyph name="hungarumlaut" format="1">
  <advance width="450"/>
  <unicode hex="02DD"/>
  <outline>
    <contour>
      <point x="70" y="624" type="curve" name="hr00"/>
      <point x="150" y="653"/>
      <point x="236" y="730"/>
      <point x="272" y="798" type="curve"/>
      <point x="262" y="819"/>
      <point x="238" y="865"/>
      <point x="181" y="868" type="curve"/>
      <point x="157" y="786"/>
      <point x="89" y="708"/>
      <point x="40" y="669" type="curve"/>
      <point x="44" y="646"/>
      <point x="56" y="627"/>
    </contour>
    <contour>
      <point x="260" y="624" type="curve"/>
      <point x="340" y="653"/>
      <point x="426" y="730"/>
      <point x="462" y="798" type="curve"/>
      <point x="452" y="819"/>
      <point x="428" y="865"/>
      <point x="371" y="868" type="curve"/>
      <point x="347" y="786"/>
      <point x="279" y="708"/>
      <point x="230" y="669" type="curve"/>
      <point x="234" y="646"/>
      <point x="246" y="627"/>
    </contour>
  </outline>
</glyph>
<glyph name="pi" format="1">
  <advance width="675"/>
  <unicode hex="03C0"/>
  <outline>
    <contour>
      <point x="547" y="649" type="curve" smooth="yes"/>
      <point x="431" y="649" smooth="yes"/>
      <point x="340" y="635" smooth="yes"/>
      <point x="247" y="635" type="curve" smooth="yes"/>
      <point x="180" y="635"/>
      <point x="120" y="638"/>
      <point x="51" y="646" type="curve"/>
      <point x="51" y="638" smooth="yes"/>
      <point x="50" y="631" smooth="yes"/>
      <point x="50" y="623" type="curve" smooth="yes"/>
      <point x="50" y="564"/>
      <point x="64" y="521"/>
      <point x="155" y="515" type="curve"/>
      <point x="155" y="493" type="line" smooth="yes"/>
      <point x="153" y="306" smooth="yes"/>
      <point x="105" y="143" smooth="yes"/>
      <point x="105" y="84" type="curve" smooth="yes" name="hr01"/>
      <point x="105" y="23" smooth="yes"/>
      <point x="130" y="-2" smooth="yes"/>
      <point x="208" y="-2" type="curve" smooth="yes"/>
      <point x="220" y="-2"/>
      <point x="238" y="-1"/>
      <point x="249" y="0" type="curve"/>
      <point x="243" y="33" smooth="yes"/>
      <point x="243" y="68" smooth="yes"/>
      <point x="243" y="102" type="curve" smooth="yes"/>
      <point x="243" y="204" smooth="yes"/>
      <point x="275" y="329" smooth="yes"/>
      <point x="275" y="417" type="curve" smooth="yes" name="hr02"/>
      <point x="275" y="457"/>
      <point x="271" y="489"/>
      <point x="259" y="516" type="curve"/>
      <point x="326" y="519"/>
      <point x="385" y="525"/>
      <point x="444" y="527" type="curve"/>
      <point x="445" y="511" smooth="yes"/>
      <point x="445" y="495" smooth="yes"/>
      <point x="445" y="479" type="curve" smooth="yes"/>
      <point x="445" y="377" smooth="yes"/>
      <point x="413" y="252" smooth="yes"/>
      <point x="413" y="164" type="curve" smooth="yes" name="hr03"/>
      <point x="413" y="67"/>
      <point x="436" y="13"/>
      <point x="545" y="-15" type="curve"/>
      <point x="537" y="3" smooth="yes"/>
      <point x="533" y="40" smooth="yes"/>
      <point x="533" y="88" type="curve" smooth="yes"/>
      <point x="535" y="275" smooth="yes"/>
      <point x="583" y="438" smooth="yes"/>
      <point x="583" y="497" type="curve" smooth="yes" name="hr04"/>
      <point x="583" y="507"/>
      <point x="582" y="516"/>
      <point x="580" y="525" type="curve"/>
      <point x="611" y="523"/>
      <point x="641" y="521"/>
      <point x="674" y="517" type="curve"/>
      <point x="674" y="525" smooth="yes"/>
      <point x="675" y="532" smooth="yes"/>
      <point x="675" y="540" type="curve" smooth="yes"/>
      <point x="675" y="603" smooth="yes"/>
      <point x="659" y="649" smooth="yes"/>
    </contour>
  </outline>
</glyph>
<glyph name="ellipsis" format="1">
  <advance width="624"/>
  <unicode hex="2026"/>
  <outline>
    <contour>
      <point x="175" y="-1" type="curve" name="hr00"/>
      <point x="183" y="28" smooth="yes"/>
      <point x="193" y="55" smooth="yes"/>
      <point x="193" y="84" type="curve" smooth="yes"/>
      <point x="193" y="134" smooth="yes"/>
      <point x="156" y="146" smooth="yes"/>
      <point x="119" y="146" type="curve" smooth="yes"/>
      <point x="95" y="146"/>
      <point x="69" y="142"/>
      <point x="48" y="136" type="curve"/>
      <point x="40" y="107" smooth="yes"/>
      <point x="30" y="80" smooth="yes"/>
      <point x="30" y="51" type="curve" smooth="yes"/>
      <point x="30" y="1" smooth="yes"/>
      <point x="67" y="-11" smooth="yes"/>
      <point x="104" y="-11" type="curve" smooth="yes"/>
      <point x="128" y="-11"/>
      <point x="154" y="-7"/>
    </contour>
    <contour>
      <point x="383" y="-1" type="curve"/>
      <point x="391" y="28" smooth="yes"/>
      <point x="401" y="55" smooth="yes"/>
      <point x="401" y="84" type="curve" smooth="yes"/>
      <point x="401" y="134" smooth="yes"/>
      <point x="364" y="146" smooth="yes"/>
      <point x="327" y="146" type="curve" smooth="yes"/>
      <point x="303" y="146"/>
      <point x="277" y="142"/>
      <point x="256" y="136" type="curve"/>
      <point x="248" y="107" smooth="yes"/>
      <point x="238" y="80" smooth="yes"/>
      <point x="238" y="51" type="curve" smooth="yes"/>
      <point x="238" y="1" smooth="yes"/>
      <point x="275" y="-11" smooth="yes"/>
      <point x="312" y="-11" type="curve" smooth="yes"/>
      <point x="336" y="-11"/>
      <point x="362" y="-7"/>
    </contour>
    <contour>
      <point x="591" y="-1" type="curve"/>
      <point x="599" y="28" smooth="yes"/>
      <point x="609" y="55" smooth="yes"/>
      <point x="609" y="84" type="curve" smooth="yes"/>
      <point x="609" y="134" smooth="yes"/>
      <point x="572" y="146" smooth="yes"/>
      <point x="535" y="146" type="curve" smooth="yes"/>
      <point x="511" y="146"/>
      <point x="485" y="142"/>
      <point x="464" y="136" type="curve"/>
      <point x="456" y="107" smooth="yes"/>
      <point x="446" y="80" smooth="yes"/>
      <point x="446" y="51" type="curve" smooth="yes"/>
      <point x="446" y="1" smooth="yes"/>
      <point x="483" y="-11" smooth="yes"/>
      <point x="520" y="-11" type="curve" smooth="yes"/>
      <point x="544" y="-11"/>
      <point x="570" y="-7"/>
    </contour>
  </outline>
</glyph>
<glyph name="guilsinglleft" format="1">
  <advance width="397"/>
  <unicode hex="2039"/>
  <outline>
    <contour>
      <point x="60" y="307" type="line" name="hr00"/>
      <point x="128" y="274" smooth="yes"/>
      <point x="125" y="60" smooth="yes"/>
      <point x="209" y="60" type="curve" smooth="yes"/>
      <point x="243" y="60"/>
      <point x="277" y="79"/>
      <point x="324" y="115" type="curve"/>
      <point x="264" y="137"/>
      <point x="231" y="251"/>
      <point x="191" y="317" type="curve"/>
      <point x="244" y="383"/>
      <point x="301" y="497"/>
      <point x="367" y="519" type="curve"/>
      <point x="328" y="555" smooth="yes"/>
      <point x="298" y="574" smooth="yes"/>
      <point x="264" y="574" type="curve" smooth="yes"/>
      <point x="180" y="574"/>
      <point x="137" y="360"/>
      <point x="63" y="327" type="curve"/>
    </contour>
  </outline>
</glyph>
<glyph name="oneinferior" format="1">
  <advance width="284"/>
  <unicode hex="2081"/>
  <outline>
    <contour>
      <point x="208" y="-158" type="curve" name="hr00"/>
      <point x="206" y="-128" smooth="yes"/>
      <point x="206" y="-86" smooth="yes"/>
      <point x="206" y="-47" type="curve" smooth="yes"/>
      <point x="206" y="71"/>
      <point x="222" y="179"/>
      <point x="234" y="288" type="curve"/>
      <point x="143" y="246"/>
      <point x="40" y="216"/>
      <point x="10" y="208" type="curve"/>
      <point x="10" y="189" smooth="yes"/>
      <point x="25" y="133" smooth="yes"/>
      <point x="62" y="133" type="curve" smooth="yes"/>
      <point x="72" y="133"/>
      <point x="105" y="143"/>
      <point x="129" y="156" type="curve"/>
      <point x="122" y="84" smooth="yes"/>
      <point x="102" y="-30" smooth="yes"/>
      <point x="102" y="-98" type="curve" smooth="yes"/>
      <point x="102" y="-130" smooth="yes"/>
      <point x="112" y="-161" smooth="yes"/>
      <point x="167" y="-161" type="curve" smooth="yes"/>
      <point x="176" y="-161"/>
      <point x="188" y="-161"/>
    </contour>
  </outline>
</glyph>
<glyph name="fiveinferior" format="1">
  <advance width="363"/>
  <unicode hex="2085"/>
  <outline>
    <contour>
      <point x="165" y="-107" type="curve" smooth="yes" name="hr00"/>
      <point x="130" y="-107" smooth="yes"/>
      <point x="111" y="-86" smooth="yes"/>
      <point x="111" y="-55" type="curve" smooth="yes"/>
      <point x="111" y="-38"/>
      <point x="119" y="-13"/>
      <point x="150" y="4" type="curve"/>
      <point x="130" y="14" smooth="yes"/>
      <point x="110" y="15" smooth="yes"/>
      <point x="102" y="15" type="curve" smooth="yes"/>
      <point x="54" y="15" smooth="yes"/>
      <point x="30" y="-25" smooth="yes"/>
      <point x="30" y="-67" type="curve" smooth="yes"/>
      <point x="30" y="-116" smooth="yes"/>
      <point x="63" y="-169" smooth="yes"/>
      <point x="157" y="-169" type="curve" smooth="yes"/>
      <point x="267" y="-169" smooth="yes"/>
      <point x="333" y="-99" smooth="yes"/>
      <point x="333" y="-21" type="curve" smooth="yes"/>
      <point x="333" y="51" smooth="yes"/>
      <point x="292" y="112" smooth="yes"/>
      <point x="166" y="112" type="curve" smooth="yes"/>
      <point x="157" y="112"/>
      <point x="146" y="112"/>
      <point x="136" y="111" type="curve"/>
      <point x="150" y="206" type="line"/>
      <point x="182" y="195" smooth="yes"/>
      <point x="264" y="183" smooth="yes"/>
      <point x="289" y="183" type="curve" smooth="yes"/>
      <point x="324" y="183" smooth="yes"/>
      <point x="333" y="205" smooth="yes"/>
      <point x="333" y="234" type="curve" smooth="yes"/>
      <point x="333" y="251"/>
      <point x="329" y="269"/>
      <point x="326" y="282" type="curve"/>
      <point x="326" y="282" smooth="yes"/>
      <point x="263" y="272" smooth="yes"/>
      <point x="194" y="272" type="curve" smooth="yes"/>
      <point x="148" y="272"/>
      <point x="114" y="274"/>
      <point x="69" y="280" type="curve"/>
      <point x="71" y="252"/>
      <point x="78" y="239"/>
      <point x="87" y="227" type="curve"/>
      <point x="58" y="46" type="line"/>
      <point x="85" y="56" smooth="yes"/>
      <point x="122" y="58" smooth="yes"/>
      <point x="138" y="58" type="curve" smooth="yes"/>
      <point x="214" y="58" smooth="yes"/>
      <point x="241" y="12" smooth="yes"/>
      <point x="241" y="-31" type="curve" smooth="yes"/>
      <point x="241" y="-70" smooth="yes"/>
      <point x="214" y="-107" smooth="yes"/>
    </contour>
  </outline>
</glyph>
<glyph name="franc" format="1">
  <advance width="543"/>
  <unicode hex="20A3"/>
  <outline>
    <contour>
      <point x="65" y="658" type="curve" smooth="yes"/>
      <point x="65" y="594" smooth="yes"/>
      <point x="70" y="579" smooth="yes"/>
      <point x="139" y="579" type="curve" smooth="yes"/>
      <point x="134" y="455"/>
      <point x="111" y="317"/>
      <point x="95" y="208" type="curve"/>
      <point x="67" y="204" smooth="yes"/>
      <point x="40" y="201" smooth="yes"/>
      <point x="14" y="201" type="curve" smooth="yes"/>
      <point x="2" y="201"/>
      <point x="-10" y="202"/>
      <point x="-22" y="202" type="curve"/>
      <point x="-17" y="142" smooth="yes"/>
      <point x="7" y="118" smooth="yes"/>
      <point x="51" y="118" type="curve" smooth="yes"/>
      <point x="59" y="118"/>
      <point x="71" y="119"/>
      <point x="84" y="121" type="curve"/>
      <point x="82" y="98" smooth="yes"/>
      <point x="81" y="78" smooth="yes"/>
      <point x="81" y="62" type="curve" smooth="yes"/>
      <point x="81" y="6" smooth="yes"/>
      <point x="109" y="-15" smooth="yes"/>
      <point x="184" y="-15" type="curve" smooth="yes"/>
      <point x="197" y="-15"/>
      <point x="212" y="-14"/>
      <point x="227" y="-14" type="curve" name="hr01"/>
      <point x="222" y="18" smooth="yes"/>
      <point x="222" y="47" smooth="yes"/>
      <point x="222" y="75" type="curve" smooth="yes"/>
      <point x="222" y="99"/>
      <point x="222" y="122"/>
      <point x="223" y="146" type="curve"/>
      <point x="265" y="153" smooth="yes"/>
      <point x="306" y="159" smooth="yes"/>
      <point x="339" y="159" type="curve" smooth="yes"/>
      <point x="366" y="159"/>
      <point x="387" y="156"/>
      <point x="397" y="150" type="curve"/>
      <point x="384" y="221" smooth="yes"/>
      <point x="357" y="239" smooth="yes"/>
      <point x="310" y="239" type="curve" smooth="yes"/>
      <point x="286" y="239"/>
      <point x="258" y="236"/>
      <point x="229" y="231" type="curve"/>
      <point x="232" y="264"/>
      <point x="236" y="297"/>
      <point x="240" y="329" type="curve"/>
      <point x="292" y="329" type="line" smooth="yes"/>
      <point x="319" y="329" smooth="yes"/>
      <point x="349" y="328" smooth="yes"/>
      <point x="383" y="328" type="curve" smooth="yes"/>
      <point x="422" y="328" smooth="yes"/>
      <point x="448" y="350" smooth="yes"/>
      <point x="448" y="415" type="curve" smooth="yes"/>
      <point x="448" y="424"/>
      <point x="447" y="434"/>
      <point x="446" y="443" type="curve"/>
      <point x="415" y="418" smooth="yes"/>
      <point x="366" y="412" smooth="yes"/>
      <point x="318" y="412" type="curve" smooth="yes"/>
      <point x="301" y="412"/>
      <point x="276" y="412"/>
      <point x="251" y="413" type="curve"/>
      <point x="261" y="480"/>
      <point x="270" y="537"/>
      <point x="273" y="581" type="curve"/>
      <point x="421" y="586"/>
      <point x="542" y="586"/>
      <point x="561" y="721" type="curve"/>
      <point x="480" y="707" smooth="yes"/>
      <point x="388" y="699" smooth="yes"/>
      <point x="295" y="699" type="curve" smooth="yes"/>
      <point x="220" y="699"/>
      <point x="145" y="704"/>
      <point x="73" y="713" type="curve"/>
      <point x="69" y="702" smooth="yes"/>
      <point x="65" y="682" smooth="yes"/>
    </contour>
  </outline>
</glyph>
<glyph name="Omega" format="1">
  <advance width="802"/>
  <unicode hex="2126"/>
  <outline>
    <contour>
      <point x="456" y="128" type="line"/>
      <point x="642" y="160" smooth="yes"/>
      <point x="740" y="292" smooth="yes"/>
      <point x="740" y="465" type="curve" smooth="yes"/>
      <point x="740" y="630" smooth="yes"/>
      <point x="627" y="699" smooth="yes"/>
      <point x="513" y="699" type="curve" smooth="yes"/>
      <point x="478" y="699"/>
      <point x="443" y="694"/>
      <point x="412" y="684" type="curve"/>
      <point x="411" y="708"/>
      <point x="399" y="720"/>
      <point x="378" y="720" type="curve"/>
      <point x="211" y="685" smooth="yes"/>
      <point x="94" y="549" smooth="yes"/>
      <point x="94" y="388" type="curve" smooth="yes"/>
      <point x="94" y="212"/>
      <point x="204" y="144"/>
      <point x="296" y="129" type="curve"/>
      <point x="294" y="113" type="line"/>
      <point x="273" y="110" smooth="yes"/>
      <point x="255" y="109" smooth="yes"/>
      <point x="239" y="109" type="curve" smooth="yes"/>
      <point x="187" y="109" smooth="yes"/>
      <point x="152" y="121" smooth="yes"/>
      <point x="92" y="121" type="curve" smooth="yes"/>
      <point x="42" y="121" smooth="yes"/>
      <point x="35" y="75" smooth="yes"/>
      <point x="35" y="12" type="curve" smooth="yes"/>
      <point x="35" y="4"/>
      <point x="36" y="-3"/>
      <point x="36" y="-11" type="curve"/>
      <point x="66" y="-3" smooth="yes"/>
      <point x="93" y="0" smooth="yes"/>
      <point x="121" y="0" type="curve" smooth="yes" name="hr01"/>
      <point x="242" y="0" type="line" smooth="yes"/>
      <point x="321" y="0"/>
      <point x="333" y="0"/>
      <point x="347" y="184" type="curve"/>
      <point x="278" y="205" smooth="yes"/>
      <point x="235" y="270" smooth="yes"/>
      <point x="235" y="377" type="curve" smooth="yes"/>
      <point x="235" y="536" smooth="yes"/>
      <point x="337" y="641" smooth="yes"/>
      <point x="447" y="641" type="curve" smooth="yes"/>
      <point x="532" y="641" smooth="yes"/>
      <point x="594" y="579" smooth="yes"/>
      <point x="594" y="435" type="curve" smooth="yes"/>
      <point x="594" y="302"/>
      <point x="505" y="188"/>
      <point x="414" y="179" type="curve"/>
      <point x="410" y="142" smooth="yes"/>
      <point x="405" y="95" smooth="yes"/>
      <point x="405" y="62" type="curve" smooth="yes"/>
      <point x="405" y="0" smooth="yes"/>
      <point x="427" y="0" smooth="yes"/>
      <point x="482" y="0" type="curve" smooth="yes"/>
      <point x="620" y="0" type="line" smooth="yes"/>
      <point x="648" y="0"/>
      <point x="675" y="-3"/>
      <point x="705" y="-11" type="curve" name="hr02"/>
      <point x="705" y="-3" smooth="yes"/>
      <point x="706" y="4" smooth="yes"/>
      <point x="706" y="12" type="curve" smooth="yes"/>
      <point x="706" y="75" smooth="yes"/>
      <point x="699" y="121" smooth="yes"/>
      <point x="649" y="121" type="curve" smooth="yes"/>
      <point x="594" y="121" smooth="yes"/>
      <point x="557" y="109" smooth="yes"/>
      <point x="506" y="109" type="curve" smooth="yes"/>
      <point x="490" y="109"/>
      <point x="474" y="110"/>
      <point x="455" y="113" type="curve"/>
    </contour>
  </outline>
</glyph>
<glyph name="summation" format="1">
  <advance width="765"/>
  <unicode hex="2211"/>
  <outline>
    <contour>
      <point x="504" y="242" type="line" name="hr00"/>
      <point x="234" y="611" type="line"/>
      <point x="258" y="612" smooth="yes"/>
      <point x="267" y="612" smooth="yes"/>
      <point x="292" y="612" type="curve" smooth="yes"/>
      <point x="385" y="612" smooth="yes"/>
      <point x="477" y="598" smooth="yes"/>
      <point x="593" y="598" type="curve" smooth="yes"/>
      <point x="717" y="598"/>
      <point x="730" y="656"/>
      <point x="730" y="730" type="curve"/>
      <point x="660" y="722" smooth="yes"/>
      <point x="600" y="719" smooth="yes"/>
      <point x="533" y="719" type="curve" smooth="yes"/>
      <point x="440" y="719" smooth="yes"/>
      <point x="348" y="733" smooth="yes"/>
      <point x="232" y="733" type="curve" smooth="yes"/>
      <point x="175" y="733"/>
      <point x="129" y="719"/>
      <point x="97" y="635" type="curve"/>
      <point x="97" y="571"/>
      <point x="155" y="451"/>
      <point x="360" y="242" type="curve"/>
      <point x="122" y="30"/>
      <point x="46" y="-97"/>
      <point x="42" y="-151" type="curve"/>
      <point x="62" y="-235" smooth="yes"/>
      <point x="106" y="-249" smooth="yes"/>
      <point x="163" y="-249" type="curve" smooth="yes"/>
      <point x="279" y="-249" smooth="yes"/>
      <point x="373" y="-235" smooth="yes"/>
      <point x="466" y="-235" type="curve" smooth="yes"/>
      <point x="533" y="-235"/>
      <point x="593" y="-238"/>
      <point x="661" y="-246" type="curve"/>
      <point x="664" y="-236" smooth="yes"/>
      <point x="668" y="-214" smooth="yes"/>
      <point x="668" y="-196" type="curve" smooth="yes"/>
      <point x="668" y="-151" smooth="yes"/>
      <point x="645" y="-114" smooth="yes"/>
      <point x="544" y="-114" type="curve" smooth="yes"/>
      <point x="428" y="-114" smooth="yes"/>
      <point x="334" y="-128" smooth="yes"/>
      <point x="241" y="-128" type="curve" smooth="yes"/>
      <point x="216" y="-128"/>
      <point x="207" y="-128"/>
      <point x="183" y="-127" type="curve"/>
    </contour>
  </outline>
</glyph>
<glyph name="radical" format="1">
  <advance width="591"/>
  <unicode hex="221A"/>
  <outline>
    <contour>
      <point x="259" y="-68" type="curve" name="hr00"/>
      <point x="216" y="188" smooth="yes"/>
      <point x="230" y="380" smooth="yes"/>
      <point x="132" y="380" type="curve" smooth="yes"/>
      <point x="107" y="380"/>
      <point x="69" y="369"/>
      <point x="37" y="354" type="curve"/>
      <point x="105" y="244" smooth="yes"/>
      <point x="122" y="-24" smooth="yes"/>
      <point x="168" y="-205" type="curve" smooth="yes"/>
      <point x="171" y="-216" smooth="yes"/>
      <point x="185" y="-220" smooth="yes"/>
      <point x="202" y="-220" type="curve" smooth="yes"/>
      <point x="230" y="-220"/>
      <point x="274" y="-216"/>
      <point x="293" y="-206" type="curve"/>
      <point x="366" y="-19"/>
      <point x="565" y="549"/>
      <point x="599" y="715" type="curve"/>
      <point x="692" y="716" smooth="yes"/>
      <point x="777" y="725" smooth="yes"/>
      <point x="777" y="805" type="curve" smooth="yes"/>
      <point x="777" y="820"/>
      <point x="775" y="837"/>
      <point x="773" y="853" type="curve"/>
      <point x="681" y="827"/>
      <point x="601" y="827"/>
      <point x="492" y="827" type="curve"/>
      <point x="492" y="728"/>
      <point x="333" y="136"/>
    </contour>
  </outline>
</glyph>
<glyph name="infinity" format="1">
  <advance width="620"/>
  <unicode hex="221E"/>
  <outline>
    <contour>
      <point x="469" y="515" type="curve" smooth="yes" name="hr00"/>
      <point x="397" y="515"/>
      <point x="345" y="459"/>
      <point x="300" y="399" type="curve"/>
      <point x="256" y="459" smooth="yes"/>
      <point x="210" y="515" smooth="yes"/>
      <point x="147" y="515" type="curve" smooth="yes"/>
      <point x="84" y="515" smooth="yes"/>
      <point x="11" y="473" smooth="yes"/>
      <point x="11" y="344" type="curve" smooth="yes"/>
      <point x="11" y="227" smooth="yes"/>
      <point x="65" y="157" smooth="yes"/>
      <point x="151" y="157" type="curve" smooth="yes"/>
      <point x="223" y="157"/>
      <point x="274" y="213"/>
      <point x="319" y="272" type="curve"/>
      <point x="363" y="213" smooth="yes"/>
      <point x="410" y="157" smooth="yes"/>
      <point x="473" y="157" type="curve" smooth="yes"/>
      <point x="536" y="157" smooth="yes"/>
      <point x="609" y="199" smooth="yes"/>
      <point x="609" y="328" type="curve" smooth="yes"/>
      <point x="609" y="445" smooth="yes"/>
      <point x="555" y="515" smooth="yes"/>
    </contour>
    <contour>
      <point x="151" y="260" type="curve" smooth="yes"/>
      <point x="106" y="260" smooth="yes"/>
      <point x="84" y="299" smooth="yes"/>
      <point x="84" y="335" type="curve" smooth="yes"/>
      <point x="84" y="397" smooth="yes"/>
      <point x="121" y="413" smooth="yes"/>
      <point x="155" y="413" type="curve" smooth="yes"/>
      <point x="196" y="413"/>
      <point x="230" y="385"/>
      <point x="262" y="347" type="curve"/>
      <point x="227" y="299" smooth="yes"/>
      <point x="192" y="260" smooth="yes"/>
    </contour>
    <contour>
      <point x="469" y="412" type="curve" smooth="yes"/>
      <point x="514" y="412" smooth="yes"/>
      <point x="536" y="373" smooth="yes"/>
      <point x="536" y="337" type="curve" smooth="yes"/>
      <point x="536" y="275" smooth="yes"/>
      <point x="499" y="259" smooth="yes"/>
      <point x="465" y="259" type="curve" smooth="yes"/>
      <point x="423" y="259"/>
      <point x="389" y="287"/>
      <point x="357" y="324" type="curve"/>
      <point x="393" y="372" smooth="yes"/>
      <point x="427" y="412" smooth="yes"/>
    </contour>
  </outline>
</glyph>
<glyph name="approxequal" format="1">
  <advance width="620"/>
  <unicode hex="2248"/>
  <outline>
    <contour>
      <point x="576" y="551" type="curve" name="hr00"/>
      <point x="546" y="511" smooth="yes"/>
      <point x="487" y="498" smooth="yes"/>
      <point x="434" y="498" type="curve" smooth="yes"/>
      <point x="369" y="498" smooth="yes"/>
      <point x="283" y="539" smooth="yes"/>
      <point x="199" y="539" type="curve" smooth="yes"/>
      <point x="73" y="539"/>
      <point x="44" y="455"/>
      <point x="44" y="363" type="curve"/>
      <point x="74" y="403" smooth="yes"/>
      <point x="133" y="416" smooth="yes"/>
      <point x="186" y="416" type="curve" smooth="yes"/>
      <point x="251" y="416" smooth="yes"/>
      <point x="337" y="375" smooth="yes"/>
      <point x="421" y="375" type="curve" smooth="yes"/>
      <point x="547" y="375"/>
      <point x="576" y="459"/>
    </contour>
    <contour>
      <point x="576" y="313" type="curve"/>
      <point x="546" y="273" smooth="yes"/>
      <point x="487" y="260" smooth="yes"/>
      <point x="434" y="260" type="curve" smooth="yes"/>
      <point x="369" y="260" smooth="yes"/>
      <point x="283" y="301" smooth="yes"/>
      <point x="199" y="301" type="curve" smooth="yes"/>
      <point x="73" y="301"/>
      <point x="44" y="217"/>
      <point x="44" y="125" type="curve"/>
      <point x="74" y="165" smooth="yes"/>
      <point x="133" y="178" smooth="yes"/>
      <point x="186" y="178" type="curve" smooth="yes"/>
      <point x="251" y="178" smooth="yes"/>
      <point x="337" y="137" smooth="yes"/>
      <point x="421" y="137" type="curve" smooth="yes"/>
      <point x="547" y="137"/>
      <point x="576" y="221"/>
    </contour>
  </outline>
</glyph>
<glyph name="caron.case" format="1">
  <advance width="450"/>
  <outline>
    <contour>
      <point x="172" y="1085" type="curve" smooth="yes" name="hr00"/>
      <point x="150" y="1085"/>
      <point x="130" y="1083"/>
      <point x="100" y="1074" type="curve"/>
      <point x="204" y="958"/>
      <point x="161" y="849"/>
      <point x="264" y="849" type="curve"/>
      <point x="307" y="899"/>
      <point x="332" y="939"/>
      <point x="452" y="1013" type="curve"/>
      <point x="451" y="1062"/>
      <point x="420" y="1089"/>
      <point x="401" y="1102" type="curve"/>
      <point x="331" y="1062"/>
      <point x="297" y="1021"/>
      <point x="267" y="975" type="curve"/>
      <point x="246" y="1060" smooth="yes"/>
      <point x="233" y="1085" smooth="yes"/>
    </contour>
  </outline>
</glyph>
<glyph name="caron.salt" format="1">
  <advance width="209"/>
  <outline>
    <contour>
      <point x="18" y="880" type="curve" name="hr00"/>
      <point x="35" y="843" smooth="yes"/>
      <point x="50" y="810" smooth="yes"/>
      <point x="50" y="765" type="curve" smooth="yes"/>
      <point x="50" y="714"/>
      <point x="33" y="660"/>
      <point x="-1" y="620" type="curve"/>
      <point x="36" y="576" type="line"/>
      <point x="130" y="635" smooth="yes"/>
      <point x="177" y="716" smooth="yes"/>
      <point x="177" y="796" type="curve" smooth="yes"/>
      <point x="177" y="876" smooth="yes"/>
      <point x="131" y="893" smooth="yes"/>
      <point x="88" y="893" type="curve" smooth="yes"/>
      <point x="65" y="893"/>
      <point x="36" y="887"/>
    </contour>
  </outline>
</glyph>
<glyph name="dotaccent.case" format="1">
  <advance width="263"/>
  <outline>
    <contour>
      <point x="195" y="880" type="curve" name="hr00"/>
      <point x="203" y="909" smooth="yes"/>
      <point x="213" y="936" smooth="yes"/>
      <point x="213" y="965" type="curve" smooth="yes"/>
      <point x="213" y="1015" smooth="yes"/>
      <point x="176" y="1027" smooth="yes"/>
      <point x="139" y="1027" type="curve" smooth="yes"/>
      <point x="115" y="1027"/>
      <point x="89" y="1023"/>
      <point x="68" y="1017" type="curve"/>
      <point x="60" y="988" smooth="yes"/>
      <point x="50" y="961" smooth="yes"/>
      <point x="50" y="932" type="curve" smooth="yes"/>
      <point x="50" y="882" smooth="yes"/>
      <point x="87" y="870" smooth="yes"/>
      <point x="124" y="870" type="curve" smooth="yes"/>
      <point x="148" y="870"/>
      <point x="174" y="874"/>
    </contour>
  </outline>
</glyph>
<glyph name="eslash" format="1">
  <advance width="299"/>
  <outline>
    <contour>
      <point x="-45" y="441" type="curve" smooth="yes" name="hr00"/>
      <point x="-29" y="399" smooth="yes"/>
      <point x="-11" y="366" smooth="yes"/>
      <point x="32" y="366" type="curve" smooth="yes"/>
      <point x="119" y="366"/>
      <point x="261" y="496"/>
      <point x="375" y="508" type="curve"/>
      <point x="358" y="549" smooth="yes"/>
      <point x="341" y="582" smooth="yes"/>
      <point x="298" y="582" type="curve" smooth="yes"/>
      <point x="213" y="582" smooth="yes"/>
      <point x="68" y="454" smooth="yes"/>
    </contour>
  </outline>
</glyph>
<glyph name="ethbar" format="1">
  <advance width="503"/>
  <outline>
    <contour>
      <point x="388" y="385" type="curve" smooth="yes" name="hr00"/>
      <point x="302" y="385" smooth="yes"/>
      <point x="235" y="371" smooth="yes"/>
      <point x="166" y="371" type="curve" smooth="yes"/>
      <point x="116" y="371"/>
      <point x="72" y="374"/>
      <point x="21" y="382" type="curve"/>
      <point x="21" y="374" smooth="yes"/>
      <point x="20" y="367" smooth="yes"/>
      <point x="20" y="359" type="curve" smooth="yes"/>
      <point x="20" y="296" smooth="yes"/>
      <point x="32" y="250" smooth="yes"/>
      <point x="115" y="250" type="curve" smooth="yes"/>
      <point x="201" y="250" smooth="yes"/>
      <point x="268" y="264" smooth="yes"/>
      <point x="337" y="264" type="curve" smooth="yes"/>
      <point x="387" y="264"/>
      <point x="431" y="261"/>
      <point x="482" y="253" type="curve"/>
      <point x="482" y="261" smooth="yes"/>
      <point x="483" y="268" smooth="yes"/>
      <point x="483" y="276" type="curve" smooth="yes"/>
      <point x="483" y="339" smooth="yes"/>
      <point x="471" y="385" smooth="yes"/>
    </contour>
  </outline>
</glyph>
